<svg id="Layer_1" data-name="Layer 1" xmlns="http://www.w3.org/2000/svg" viewBox="0 0 6575.71 898.78"><defs><style>.cls-1{fill:#fff;}</style></defs><title>Artboard 1</title><path class="cls-1" d="M2580.54.26q-138.95,0-277.89,0c-12.31,0-12.31,0-12.31,12v764a25.72,25.72,0,0,1-3.92-8.92Q2259.84,660.16,2233,553.11c-32-127.35-64.23-254.63-95.51-382.15C2124,116.22,2109.53,61.75,2096,7c-1.4-5.67-3.46-7.2-8.48-6.81-1.66.13-3.33,0-5,0q-188.93,0-377.85,0c-13.23,0-11.44-1.58-11.45,11.83q0,436.73,0,873.46a49.84,49.84,0,0,1,0,6c-.6,5,1.09,7.62,6.55,6.86a36.11,36.11,0,0,1,5,0h277.9c11.84,0,11.84,0,11.84-12.34V118.52c.7,2.87,3.21,4.5,3.84,7.08,7.21,29.41,14.64,58.78,22,88.16q32.34,130,64.67,260,52,207.4,104.29,414.72c2.48,9.89,2.46,9.9,13,9.9h154.94q113,0,225.91,0c9.93,0,8.73-.3,8.71-8.62v-3q0-437.73,0-875.46C2591.74-1,2593.65.26,2580.54.26Z"/><path class="cls-1" d="M842,410.94c32.69-39.21,52.18-84.56,57.1-135.25,2.43-25,2.12-50.47-3.39-75.32-14.82-66.83-50-120.26-107-158.51C747.49,14.18,701.71.24,651.86.24Q332.47.26,13.05.26c-14,0-13-2-13,12.63Q0,449.17,0,885.43c0,14.65-1.34,12.91,12.67,12.92q276.92,0,553.84-.13c35.56-.06,71.16,2.1,106.72-1.65,11.5-1.21,23-2.55,34.11-5.26C746,881.9,780.79,864.91,811.3,839a249.53,249.53,0,0,0,68-91.07A239.52,239.52,0,0,0,900,647.75c-.2-17.22-1-34.41-4.78-51.31-13.52-59.83-43.85-109.12-93.15-147.77A216.69,216.69,0,0,0,842,410.94Zm-539.5-25.36V114.76c0-2.34.08-4.67,0-7-.13-3.24,1.07-5,4.58-4.86,2.32.11,4.66,0,7,0,47.65,0,95.3-.37,142.94.13,28.93.31,55.24,9.95,78.67,26.73,16.59,11.88,30.79,26.34,41.12,44.15C587,191.5,594,210.07,596.68,230.54c5.68,42.93-5.79,80.44-32.91,113.68-24.5,30-56.69,46.2-94.4,52.39a43.87,43.87,0,0,1-7,.14l-149.94.11c-2,0-4-.1-6,0-3,.12-4.08-1.44-4-4.26C302.56,390.25,302.48,387.91,302.48,385.58ZM570,734.21c-23.49,32.29-55.65,51.71-94.78,59a131.71,131.71,0,0,1-24.68,2.44c-46.65-.23-93.29,0-139.94-.06-8,0-8.1-.12-8.1-8.3q0-138.9,0-277.81c0-8.47-.38-7.83,8.41-7.83h79c23.66,0,47.32.36,71-.11,20.95-.41,39.82,6.64,57.94,15.63,24.66,12.23,43.85,31.08,58.1,54.45,10.38,17,17.45,35.47,19.84,55.65a179.2,179.2,0,0,1,1.6,21.67C598.19,680.44,588.35,709,570,734.21Z"/><path class="cls-1" d="M6547.4,784c-23.54-92.61-46.67-185.32-70-278-2-8-2.07-8-10.65-8-32.64,0-65.27,0-99.5,0,4.22-2.19,7.82-1.46,10.5-3.46.67-.51,1.95-.14,2.91-.36a247.76,247.76,0,0,0,106-52.45,250.65,250.65,0,0,0,68.2-91c10.85-24.34,18-50,19.93-76.31,1.73-23.28,1.31-46.79-3.24-70.24-8.56-44.11-27-83.23-56.06-117.09a245.21,245.21,0,0,0-93.62-68C6395.62,8.27,6368.31.57,6340.05.51Q6012.69-.21,5685.33.25c-9.78,0-9.78.06-9.84,9.83,0,.67,0,1.34,0,2V886.5c0,2.33.05,4.66,0,7-.06,3.27,1.38,5,4.76,4.86,1.67-.05,3.33,0,5,0h283.88c9.47,0,8.55.74,8.57-8.58,0-1.33,0-2.66,0-4V511c0-9.09-1.2-9.43,9.06-9.43q89.46.06,178.92,0c8.55,0,8.58.07,10.6,8.15q17.45,69.9,34.86,139.81c20.1,80.53,40.32,161,60.08,241.66,1.48,6,3.66,7.22,9.18,7.21q143.94-.21,287.88-.12c7.75,0,8.44-.88,6.39-8C6564.55,855.16,6556.42,819.46,6547.4,784ZM6240,343.33c-21.33,26.23-48.62,42.78-81.43,50.41a102.56,102.56,0,0,1-23.51,3.09c-49-.11-97.94,0-146.91,0-1.67,0-3.34-.09-5,0-3.64.22-5.72-1-5.41-5.07.18-2.32,0-4.66,0-7V115c0-2.34.12-4.67,0-7-.24-3.94,1.67-5.42,5.39-5.13,1,.08,2,0,3,0,50.3,0,100.62-.77,150.9.31,27,.59,51.87,10.43,73.78,26.29,31.92,23.1,53,53.87,60.17,92.84C6279.17,267.14,6268.89,307.74,6240,343.33Z"/><path class="cls-1" d="M4183.17,888q-10.85-43.62-21.68-87.24-30.7-123.09-61.45-246.18Q4065.6,416.27,4031.27,278q-28.86-116-57.84-231.88-4.89-19.6-9.67-39.25c-1.13-4.63-3.33-7.64-8.81-6.65a34.07,34.07,0,0,1-6,0h-525.8c-11.3,0-11.25,0-14.09,10.87-2.91,11.13-6.1,22.19-8.9,33.35q-34.87,139.08-69.64,278.19Q3297.21,456.17,3264,589.7q-28.8,115.26-57.85,230.47c-6.4,25.54-12.76,51.08-19.22,77,3.64,1.77,6.35,1.2,9,1.2q141.95,0,283.89,0c1.67,0,3.33,0,5,0,3.09.07,4.75-1.05,5.32-4.46,1-5.83,2.5-11.59,4-17.34q45.73-182.47,91.5-364.95c2.5-10,2.46-10,12.88-10h135q21,0,42,0c9.82,0,9.86,0,12.23,9.73,6.42,26.31,12.67,52.66,19.22,78.93q31.65,127,63.45,253.94c3.9,15.65,7.64,31.34,11.35,47,1.21,5.14,3.45,8.51,9.48,7.13a13.56,13.56,0,0,1,3,0H4174c2,0,4-.15,6,0,4.39.36,5-2.24,4.48-5.63C4184.22,891.14,4183.57,889.58,4183.17,888ZM3614,396.37c24-95.14,47.86-189.57,71.7-284l2-.11c23.57,94.48,47.14,189,70.87,284.11Z"/><path class="cls-1" d="M1586,.26q-288.87,0-577.73,0C995.12.26,996-1.51,996,12.64v436.7q0,218.34,0,436.69c0,14.1-1.08,12.31,12.22,12.32q256.89,0,513.77,0h66c11,0,9.82.51,9.83-9.51q0-40.47,0-80.94c0-13.44.64-12.3-12.55-12.3q-137.94,0-275.87,0c-12.57,0-11.11,1.28-11.11-11.29q0-134.91,0-269.81c0-12.88,0-12.89,13.37-12.89h275.87c10.24,0,10.28,0,10.28-10.33q0-41,0-81.94c0-12.47,0-12.48-12.47-12.48q-137.92,0-275.87,0c-13,0-11.16,1.53-11.17-11q-.07-135.4,0-270.81c0-13.83-1.71-12.07,12.28-12.08q138.95-.08,277.88,0c9.27,0,9.33-.07,9.34-9.21,0-27.31.07-54.62,0-81.94C1597.73-1.18,1599.64.26,1586,.26Z"/><path class="cls-1" d="M5572.7,396.84c-2.31.2-4.66,0-7,0q-136.44,0-272.89,0c-13.2,0-11.34,1.31-11.34-10.93q-.07-134.42,0-268.82c0-14.21,0-14.21,14.23-14.21h273.88c11,0,9.56.47,9.58-9.71q.06-40.49,0-80.95c0-12,0-12-12.25-12q-287.38,0-574.76,0c-14.29,0-12.89-1.68-12.89,12.71q0,217.86,0,435.72,0,218.35,0,436.71c0,14.69-1.57,12.94,12.59,12.94q276.88,0,553.77,0c8.66,0,17.33,0,26,0,7.62,0,7.59.27,7.57-7.71-.07-28,0-56-.05-83.95,0-12.29,1.6-11.07-11.29-11.07q-137,0-273.89,0c-14.53,0-12.46,1.63-12.47-12.93q-.09-134.91,0-269.82c0-12.31-1.92-11.21,11.08-11.21q136.95,0,273.89,0c2.33,0,4.68-.15,7,0,4.3.34,5.79-1.47,5.77-5.78q-.2-46.47,0-92.94C5579.26,397.92,5577.24,396.45,5572.7,396.84Z"/><path class="cls-1" d="M4870.64,795.62q-137.46,0-274.91,0c-14.08,0-12.35,1.66-12.36-12q0-385.27,0-770.56a46,46,0,0,1,0-6c.68-5.14-1.23-7.49-6.56-6.8a39.54,39.54,0,0,1-5,0q-139.45,0-278.91,0c-12.95,0-11-1.08-11,11.28q-.06,218.39,0,436.76,0,218.87,0,437.75c0,13.86-2.28,12.29,11.95,12.29q288.4.06,576.81,0c1.67,0,3.34,0,5,0,7-.17,7.12-.18,7.13-7.19.05-27.65,0-55.3,0-82.95C4882.89,794.67,4883.79,795.62,4870.64,795.62Z"/></svg>