<svg id="Layer_1" data-name="Layer 1" xmlns="http://www.w3.org/2000/svg" viewBox="0 0 107.11 61.5"><defs><style>.cls-1{isolation:isolate;}.cls-2{fill:#ec1c24;}</style></defs><g id="Layer_2" data-name="Layer 2"><g id="Layer_1-2" data-name="Layer 1-2"><g class="cls-1"><g class="cls-1"><path class="cls-2" d="M13.23,5V24.07h2v.75H13.56a31.91,31.91,0,0,0-3.28.18V22.59h-.06a3.91,3.91,0,0,1-3.75,2.6,4.72,4.72,0,0,1-3.64-1.84,6.25,6.25,0,0,1-1.57-4.17,6.38,6.38,0,0,1,1.66-4.37,5.09,5.09,0,0,1,3.92-1.87A3.57,3.57,0,0,1,10.22,15h.06V5.92H7.62V5.18h2.66A20.81,20.81,0,0,0,13.23,5ZM6.93,13.6a1.85,1.85,0,0,0-2,1.19,18.38,18.38,0,0,0-.4,4.84c0,2.1.17,3.43.51,4a1.79,1.79,0,0,0,1.65.82,3.14,3.14,0,0,0,2.17-.83,3.87,3.87,0,0,0,1.23-1.9,14.35,14.35,0,0,0,.3-3.48,5.46,5.46,0,0,0-.93-3.45A3.06,3.06,0,0,0,6.93,13.6Z"/></g><g class="cls-1"><path class="cls-2" d="M19.1,24.07V5.92H16.81V5.18H19A15,15,0,0,0,22,5V15.88H22a4.52,4.52,0,0,1,4.11-2.76,4.29,4.29,0,0,1,2.08.55,2.5,2.5,0,0,1,1.29,1.57,13.42,13.42,0,0,1,.29,3.28v5.55h1.89v.75H25.05v-.75h1.89V18.24a28.52,28.52,0,0,0-.14-3.37c-.08-.67-.52-1-1.31-1A2.68,2.68,0,0,0,23.34,15a5.55,5.55,0,0,0-1.13,2.23A19.08,19.08,0,0,0,22,20.89v3.18h1.88v.75H17v-.75Z"/></g><g class="cls-1"><path class="cls-2" d="M37.1,14.05l4.11,8,3.57-8H42.23v-.74h5.19v.74h-2L39.56,27.43a20.06,20.06,0,0,1-2.16,4,2.65,2.65,0,0,1-2.16,1.14,1.51,1.51,0,0,1-1.22-.5,1.71,1.71,0,0,1-.43-1.14,1.27,1.27,0,0,1,1.26-1.32,1.22,1.22,0,0,1,1.11.66c.27.44.48.66.66.66s.55-.24.85-.71a27.8,27.8,0,0,0,1.38-2.8l.95-2.16L34,14.05H32.27v-.74h7v.74Z"/><path class="cls-2" d="M50.84,24.07v-10H48.47v-.74h2.4a16.42,16.42,0,0,0,2.82-.19v2.76h.05c.69-1.84,1.7-2.76,3-2.76a1.9,1.9,0,0,1,1.41.53,1.76,1.76,0,0,1,.53,1.3,1.48,1.48,0,0,1-1.55,1.56,1.11,1.11,0,0,1-1.26-1.26l.06-.63c0-.22-.1-.33-.31-.33s-.73.43-1.23,1.3a8.39,8.39,0,0,0-.74,4v4.49h2.43v.75H48.47v-.75Z"/><path class="cls-2" d="M71,18.18H63.56q-.11,4.34.48,5.34a2.22,2.22,0,0,0,2.1,1q3.1,0,4.2-3.61H71a5.36,5.36,0,0,1-1.83,3.23,4.82,4.82,0,0,1-3,1A5.61,5.61,0,0,1,62,23.44,6,6,0,0,1,60.29,19,6,6,0,0,1,62,14.7a5.38,5.38,0,0,1,4-1.76,4.84,4.84,0,0,1,3.44,1.39A5.38,5.38,0,0,1,71,18.18Zm-7.41-.66h4.26a14.9,14.9,0,0,0,.12-1.58q0-2.34-2.13-2.34a2.34,2.34,0,0,0-1.65.56,2,2,0,0,0-.6,1.53Z"/><path class="cls-2" d="M81.11,13.17v3.29h-.6c-.45-1.91-1.55-2.86-3.28-2.86a3,3,0,0,0-1.89.59,1.72,1.72,0,0,0-.75,1.36,1.19,1.19,0,0,0,.53,1,7,7,0,0,0,2.53.63q4.38.54,4.38,4A3.9,3.9,0,0,1,80.9,24a3.8,3.8,0,0,1-2.82,1.15,4.82,4.82,0,0,1-3.21-1.37l-1,.88h-.51V20.38h.51q1.26,4.15,4.24,4.15a3.27,3.27,0,0,0,2-.72,2.11,2.11,0,0,0,.92-1.69,1.41,1.41,0,0,0-.55-1.21,8.36,8.36,0,0,0-3-.76q-4.11-.6-4.11-3.67A3.31,3.31,0,0,1,74.52,14a4.12,4.12,0,0,1,5.53.09,3.51,3.51,0,0,0,.6-.88Z"/><path class="cls-2" d="M86.38,24.07V5.92H84.1V5.18h2.19A15,15,0,0,0,89.24,5V15.88h.06a4.5,4.5,0,0,1,4.1-2.76,4.29,4.29,0,0,1,2.08.55,2.5,2.5,0,0,1,1.29,1.57,13.42,13.42,0,0,1,.29,3.28v5.55H99v.75H92.33v-.75h1.89V18.24a31.65,31.65,0,0,0-.13-3.37c-.09-.67-.53-1-1.32-1A2.68,2.68,0,0,0,90.62,15a5.68,5.68,0,0,0-1.13,2.23,19.08,19.08,0,0,0-.25,3.71v3.18h1.89v.75H84.32v-.75Z"/></g><g class="cls-1"><path class="cls-2" d="M3.15,52.41v-10H1.08v-.74H2.37A28.56,28.56,0,0,0,6,41.46v2.82h0a4.16,4.16,0,0,1,4.14-2.82q3.23,0,3.57,3h.06a4.36,4.36,0,0,1,4.23-3,3.65,3.65,0,0,1,2.22.66,2.64,2.64,0,0,1,1.11,1.52,12.74,12.74,0,0,1,.22,2.86v5.91h2v.75H16.83v-.75h1.92V45.18a9.37,9.37,0,0,0-.2-2.36,1,1,0,0,0-1.06-.65,3.51,3.51,0,0,0-2.44,1.34c-.83.9-1.25,2.59-1.25,5.09v3.81h1.89v.75H9.05v-.75H11V46.74a17.26,17.26,0,0,0-.24-3.94,1.1,1.1,0,0,0-1.15-.63,2.8,2.8,0,0,0-2.18,1.1,5.05,5.05,0,0,0-1.16,2.14A17.42,17.42,0,0,0,6,48.72v3.69H7.9v.75H1.08v-.75Z"/><path class="cls-2" d="M36.21,46.52H28.8q-.11,4.35.48,5.34a2.22,2.22,0,0,0,2.1,1q3.11,0,4.2-3.61h.63a5.36,5.36,0,0,1-1.83,3.23,4.82,4.82,0,0,1-3,1,5.61,5.61,0,0,1-4.1-1.75,6.38,6.38,0,0,1,0-8.74,5.38,5.38,0,0,1,4-1.76,4.86,4.86,0,0,1,3.44,1.39A5.38,5.38,0,0,1,36.21,46.52Zm-7.41-.65h4.26a15.24,15.24,0,0,0,.12-1.59q0-2.34-2.13-2.34a2.34,2.34,0,0,0-1.65.56A2,2,0,0,0,28.8,44Z"/><path class="cls-2" d="M40.17,52.41v-10H38.09v-.74h1.33A27.89,27.89,0,0,0,43,41.43v2.85h.06q1.5-3,4.26-3a3.31,3.31,0,0,1,2.12.66,3.35,3.35,0,0,1,1.12,1.55,9.41,9.41,0,0,1,.3,2.77v6.15h2.29v.75H46.07v-.75h2V45.09a8.68,8.68,0,0,0-.21-2.33,1,1,0,0,0-1.11-.64,3.24,3.24,0,0,0-2.56,1.45A6.25,6.25,0,0,0,43,47.49v4.92h1.92v.75H38.09v-.75Z"/><path class="cls-2" d="M66.68,33.3V52.41h2v.75H67a31.61,31.61,0,0,0-3.28.18V50.93h-.06a3.91,3.91,0,0,1-3.75,2.6,4.7,4.7,0,0,1-3.64-1.84,6.26,6.26,0,0,1-1.58-4.17,6.36,6.36,0,0,1,1.67-4.36,5.07,5.07,0,0,1,3.91-1.88,3.59,3.59,0,0,1,3.39,2.07h.06V34.26H61.07v-.74h2.67A20.78,20.78,0,0,0,66.68,33.3Zm-6.3,8.64a1.86,1.86,0,0,0-2,1.19A18.38,18.38,0,0,0,58,48c0,2.1.17,3.43.51,4a1.8,1.8,0,0,0,1.66.82,3.11,3.11,0,0,0,2.16-.83A3.87,3.87,0,0,0,63.54,50a14.29,14.29,0,0,0,.3-3.48,5.52,5.52,0,0,0-.92-3.45A3.08,3.08,0,0,0,60.38,41.94Z"/><path class="cls-2" d="M75.07,41.43v11H77v.75H70.18v-.75h2v-10h-2v-.74h2.08A17.79,17.79,0,0,0,75.07,41.43Zm-2.94-5.64a1.6,1.6,0,0,1,1.6-1.58,1.55,1.55,0,0,1,1.12.46,1.51,1.51,0,0,1,.47,1.12,1.49,1.49,0,0,1-.47,1.14,1.62,1.62,0,0,1-2.25,0A1.52,1.52,0,0,1,72.13,35.79Z"/><path class="cls-2" d="M86.66,41.51V44.8h-.6q-.68-2.86-3.28-2.86a3,3,0,0,0-1.88.59,1.71,1.71,0,0,0-.76,1.36,1.18,1.18,0,0,0,.54,1,7,7,0,0,0,2.52.63q4.38.54,4.38,4a3.86,3.86,0,0,1-1.13,2.85,3.8,3.8,0,0,1-2.82,1.15,4.84,4.84,0,0,1-3.21-1.37l-1,.88h-.51V48.72h.51c.84,2.77,2.26,4.15,4.24,4.15a3.27,3.27,0,0,0,2.05-.72,2.11,2.11,0,0,0,.92-1.69,1.41,1.41,0,0,0-.55-1.21,8.21,8.21,0,0,0-3-.76Q79,47.89,79,44.83a3.29,3.29,0,0,1,1.11-2.53,3.81,3.81,0,0,1,2.7-1,3.92,3.92,0,0,1,2.83,1.11,4.14,4.14,0,0,0,.6-.88Z"/></g></g></g></g></svg>