<svg xmlns="http://www.w3.org/2000/svg" width="301" height="294.228" viewBox="0 0 301 294.228">
  <g id="Union_4" data-name="Union 4" transform="translate(3583 5)" fill="#fff">
    <path d="M -3432.500244140625 286.7281494140625 C -3434.560546875 286.7281494140625 -3436.57666015625 286.1860961914062 -3438.3310546875 285.1606750488281 C -3440.20361328125 284.0661315917969 -3441.72802734375 282.4417114257812 -3442.73974609375 280.4629821777344 L -3452.9453125 260.5003356933594 L -3557.999755859375 260.5003356933594 C -3561.0361328125 260.5003356933594 -3563.98291015625 259.905029296875 -3566.758544921875 258.7309875488281 C -3569.43798828125 257.5975646972656 -3571.843994140625 255.9754791259766 -3573.90966796875 253.9097900390625 C -3575.97509765625 251.8441772460938 -3577.596923828125 249.4380950927734 -3578.73046875 246.7584381103516 C -3579.904296875 243.9828643798828 -3580.49951171875 241.0359802246094 -3580.49951171875 237.9996032714844 L -3580.49951171875 19.99979019165039 C -3580.49951171875 16.96340560913086 -3579.904296875 14.01655960083008 -3578.73046875 11.24105930328369 C -3577.596923828125 8.561482429504395 -3575.97509765625 6.155520915985107 -3573.909423828125 4.090021133422852 C -3571.843994140625 2.024482488632202 -3569.43798828125 0.4025209844112396 -3566.758544921875 -0.7308251857757568 C -3563.98291015625 -1.904748201370239 -3561.0361328125 -2.499979019165039 -3557.999755859375 -2.499979019165039 L -3306.999755859375 -2.499979019165039 C -3303.96337890625 -2.499979019165039 -3301.0166015625 -1.904748201370239 -3298.240966796875 -0.7308251857757568 C -3295.5615234375 0.4025209844112396 -3293.155517578125 2.024482488632202 -3291.090087890625 4.090021133422852 C -3289.0244140625 6.155520915985107 -3287.402587890625 8.561482429504395 -3286.26904296875 11.24105930328369 C -3285.09521484375 14.01655960083008 -3284.5 16.96340560913086 -3284.5 19.99979019165039 L -3284.5 237.9996032714844 C -3284.5 241.0359802246094 -3285.09521484375 243.9828643798828 -3286.26904296875 246.7584381103516 C -3287.402587890625 249.4380950927734 -3289.0244140625 251.8441772460938 -3291.08984375 253.9097900390625 C -3293.155517578125 255.9754791259766 -3295.5615234375 257.5975646972656 -3298.240966796875 258.7309875488281 C -3301.0166015625 259.905029296875 -3303.96337890625 260.5003356933594 -3306.999755859375 260.5003356933594 L -3412.05517578125 260.5003356933594 L -3422.260498046875 280.4629516601562 C -3423.2724609375 282.4418029785156 -3424.796875 284.066162109375 -3426.66943359375 285.1606750488281 C -3428.423828125 286.1860961914062 -3430.440185546875 286.7281494140625 -3432.500244140625 286.7281494140625 Z" stroke="none"/>
    <path d="M -3432.500244140625 284.2281494140625 C -3429.3291015625 284.2281494140625 -3426.157958984375 282.5937194824219 -3424.486572265625 279.3249206542969 L -3413.584716796875 258.0003051757812 L -3306.999755859375 258.0003051757812 C -3295.9541015625 258.0003051757812 -3287 249.0453033447266 -3287 237.9996032714844 L -3287 19.99980926513672 C -3287 8.9541015625 -3295.9541015625 1.778157638909761e-05 -3306.999755859375 1.778157638909761e-05 L -3557.999755859375 1.778157638909761e-05 C -3569.04541015625 1.778157638909761e-05 -3577.99951171875 8.9541015625 -3577.99951171875 19.99980926513672 L -3577.99951171875 237.9996032714844 C -3577.99951171875 249.0453033447266 -3569.04541015625 258.0003051757812 -3557.999755859375 258.0003051757812 L -3451.415771484375 258.0003051757812 L -3440.513671875 279.3249206542969 C -3438.842529296875 282.5937194824219 -3435.67138671875 284.2281494140625 -3432.500244140625 284.2281494140625 M -3432.500244140625 289.2281494140625 C -3435.00341796875 289.2281494140625 -3437.455810546875 288.5679626464844 -3439.592529296875 287.3189697265625 C -3441.878173828125 285.9830322265625 -3443.736328125 284.0057373046875 -3444.965576171875 281.6009216308594 L -3454.47509765625 263.0003051757812 L -3557.999755859375 263.0003051757812 C -3561.37255859375 263.0003051757812 -3564.647216796875 262.3385620117188 -3567.732421875 261.0334777832031 C -3570.7099609375 259.7739868164062 -3573.383056640625 257.9719848632812 -3575.677490234375 255.6775207519531 C -3577.9716796875 253.3831024169922 -3579.7734375 250.7099304199219 -3581.032958984375 247.7323150634766 C -3582.337890625 244.6468963623047 -3582.99951171875 241.3723449707031 -3582.99951171875 237.9996032714844 L -3582.99951171875 19.99980926513672 C -3582.99951171875 16.62701797485352 -3582.337890625 13.35251808166504 -3581.032958984375 10.26718425750732 C -3579.7734375 7.289642810821533 -3577.9716796875 4.616559505462646 -3575.67724609375 2.322226047515869 C -3573.383056640625 0.02793444879353046 -3570.7099609375 -1.773940563201904 -3567.732421875 -3.0333571434021 C -3564.64697265625 -4.338315486907959 -3561.37255859375 -4.999982357025146 -3557.999755859375 -4.999982357025146 L -3306.999755859375 -4.999982357025146 C -3303.626953125 -4.999982357025146 -3300.3525390625 -4.338315486907959 -3297.26708984375 -3.0333571434021 C -3294.28955078125 -1.773940563201904 -3291.616455078125 0.02793444879353046 -3289.322265625 2.322226047515869 C -3287.02783203125 4.616559505462646 -3285.22607421875 7.289642810821533 -3283.966552734375 10.26718425750732 C -3282.66162109375 13.35251808166504 -3282 16.62701797485352 -3282 19.99980926513672 L -3282 237.9996032714844 C -3282 241.3723449707031 -3282.66162109375 244.6468963623047 -3283.966552734375 247.7323150634766 C -3285.22607421875 250.7099304199219 -3287.02783203125 253.3831024169922 -3289.322021484375 255.6775207519531 C -3291.616455078125 257.9719848632812 -3294.28955078125 259.7739868164062 -3297.26708984375 261.0334777832031 C -3300.352294921875 262.3385620117188 -3303.626953125 263.0003051757812 -3306.999755859375 263.0003051757812 L -3410.525390625 263.0003051757812 L -3420.03466796875 281.6009216308594 C -3421.264404296875 284.0058898925781 -3423.122314453125 285.9830932617188 -3425.407958984375 287.3190307617188 C -3427.544677734375 288.5679626464844 -3429.9970703125 289.2281494140625 -3432.500244140625 289.2281494140625 Z" stroke="none" fill="#0cbab4"/>
  </g>
</svg>
