<svg xmlns="http://www.w3.org/2000/svg" width="302" height="669.035" viewBox="0 0 302 669.035">
  <g id="Grupo_55" data-name="Grupo 55" transform="translate(-2570.25 2442.785)">
    <g id="Grupo_49" data-name="Grupo 49" transform="translate(5005 306.5) rotate(-90)">
      <g id="Grupo_30" data-name="Grupo 30" transform="translate(4101.75 -3242.75) rotate(90)">
        <circle id="Elipse_1" data-name="Elipse 1" cx="28.5" cy="28.5" r="28.5" transform="translate(905 1358)" fill="#5afba1"/>
        <g id="Grupo_27" data-name="Grupo 27" transform="translate(900 1353)">
          <path id="Trazado_2" data-name="Trazado 2" d="M33.989,6A27.989,27.989,0,1,0,61.978,33.989,27.989,27.989,0,0,0,33.989,6Zm0,2.666a25.3,25.3,0,0,1,20.68,10.756l-3.332,3.332a5.261,5.261,0,0,0-2.687-.76,5.331,5.331,0,0,0-5.331,5.331,5.26,5.26,0,0,0,.756,2.691l-8.727,8.727a5.169,5.169,0,0,0-5.382,0L23.9,32.682a5.261,5.261,0,0,0,.756-2.691,5.321,5.321,0,0,0-10.473-1.333H9.241A25.359,25.359,0,0,1,33.989,8.666Zm12,18.659a2.666,2.666,0,1,1,2.666,2.666A2.666,2.666,0,0,1,45.984,27.325ZM32.656,40.653a2.666,2.666,0,1,1-2.666,2.666A2.666,2.666,0,0,1,32.656,40.653Zm-13.328-8a2.666,2.666,0,1,1,2.666-2.666A2.666,2.666,0,0,1,19.328,32.656ZM33.989,59.313A25.306,25.306,0,0,1,8.808,31.323h5.378a5.331,5.331,0,0,0,5.142,4,5.261,5.261,0,0,0,2.691-.756l6.062,6.062a5.26,5.26,0,0,0-.756,2.691,5.331,5.331,0,1,0,10.663,0,5.261,5.261,0,0,0-.756-2.691L45.959,31.9a5.261,5.261,0,0,0,2.691.756,5.331,5.331,0,0,0,5.331-5.331,5.261,5.261,0,0,0-.756-2.691l2.906-2.9A25.3,25.3,0,0,1,33.989,59.313Z" transform="translate(-0.638 -0.664)" fill="#212121" stroke="#fff" stroke-width="1"/>
          <path id="Trazado_3" data-name="Trazado 3" d="M68.648,4.667A5.331,5.331,0,0,0,63.317,10a5.26,5.26,0,0,0,.756,2.691l-2.342,2.342a33.32,33.32,0,1,0-8.319,48.256l4.022,4.022,1.885,1.885L70.048,79.923a6.987,6.987,0,0,0,9.881-9.881L69.2,59.312l-1.885-1.885-4.022-4.022a33.21,33.21,0,0,0,0-36.167l2.666-2.666a5.26,5.26,0,0,0,2.69.757,5.331,5.331,0,0,0,5.142-4h8.186V8.665H73.79a5.331,5.331,0,0,0-5.142-4Zm9.4,67.259a4.322,4.322,0,1,1-6.112,6.112L61.2,67.309,67.316,61.2Zm-16.3-16.3,3.689,3.689-6.112,6.112L55.63,61.735c.188-.144.364-.3.549-.45s.4-.325.6-.492c.292-.245.58-.493.862-.748.145-.133.284-.267.426-.4q.82-.768,1.587-1.587c.133-.143.267-.281.4-.426.255-.283.5-.57.748-.862q.251-.3.492-.6C61.439,55.987,61.6,55.811,61.742,55.623Zm-1.479-2.5c-.42.586-.853,1.161-1.31,1.714-.133.161-.276.317-.413.476q-.612.712-1.264,1.381-.284.293-.577.577-.666.652-1.381,1.264c-.159.133-.315.279-.476.413-.553.457-1.128.89-1.714,1.31a30.7,30.7,0,1,1,7.135-7.135Zm8.386-40.458A2.666,2.666,0,1,1,71.314,10,2.666,2.666,0,0,1,68.648,12.664Z" transform="translate(-1.977 -1.997)" fill="#212121" stroke="#fff" stroke-width="1"/>
        </g>
      </g>
      <text id="Consultoría_y_análisis_documental" data-name="Consultoría y análisis documental" transform="translate(2654.75 -2344.25) rotate(90)" fill="#212121" font-size="16" font-family="Avenir-Medium, Avenir" font-weight="500" letter-spacing="0.045em"><tspan x="6.404" y="16">Consultoría </tspan><tspan x="16.42" y="38">y análisis </tspan><tspan x="5.572" y="60">documental</tspan></text>
    </g>
    <g id="Grupo_50" data-name="Grupo 50" transform="translate(4857.5 530) rotate(-90)">
      <g id="Grupo_31" data-name="Grupo 31" transform="translate(4101.75 -3269.75) rotate(90)">
        <path id="Trazado_69" data-name="Trazado 69" d="M0,0H60l.6,51.24L48.007,68.657l5.872,5,6.72-5L60,90H0Z" transform="translate(1089 1343)" fill="#5afba1"/>
        <g id="Grupo_14" data-name="Grupo 14" transform="translate(-167.533 66)">
          <path id="Trazado_38" data-name="Trazado 38" d="M14.77,4.336a1.237,1.237,0,0,0-1.237,1.237V93.022a1.237,1.237,0,0,0,1.237,1.237h59.3a1.237,1.237,0,0,0,1.237-1.237V73.484a1.237,1.237,0,1,0-2.474,0v18.3H16.005V6.809H72.834V50.115a1.237,1.237,0,1,0,2.474,0V5.573A1.237,1.237,0,0,0,74.07,4.336H14.77Zm15.664,9.2a1.237,1.237,0,1,0,0,2.474l28.491.021a1.237,1.237,0,1,0,0-2.474Zm-7.65,10.9a1.237,1.237,0,1,0,0,2.474l44.053.013a1.237,1.237,0,1,0,0-2.474Zm0,5.936a1.237,1.237,0,1,0,0,2.474l44.053.013a1.237,1.237,0,1,0,0-2.474Zm63.638,5.872a1.236,1.236,0,0,0-1.026.524L60,72.827a1.236,1.236,0,0,0-.2.473,1.146,1.146,0,0,0-.077.207l-2.385,9.155a30.994,30.994,0,0,1-4.5.373,15.778,15.778,0,0,1-2.984-.234,3.69,3.69,0,0,1-1.639-.661l-.481-.3-.226-.052s-.15-.012-.187-.012a.941.941,0,0,0-.126.008c-.048,0-.067.008-.087.012L47,81.82l-.286.056c-.23.046-.532.107-.843.164-.245.045-.473.08-.686.11l0-.006a1.613,1.613,0,0,0-1.016-.75c-.062-.015-.1.056-.16.05a2.911,2.911,0,0,0-.406-1.428,1.843,1.843,0,0,0-.951-.769,1.917,1.917,0,0,0-1.295.062,7.188,7.188,0,0,0-2.539,1.983,30.971,30.971,0,0,0-.369-3.82,18.188,18.188,0,0,0-.69-2.914,3.274,3.274,0,0,0-1.579-2.22,5.094,5.094,0,0,0-2.6-.52,6.938,6.938,0,0,0-2.543.68,15.749,15.749,0,0,0-4.413,3.386A45.518,45.518,0,0,0,20.781,83.7a1.237,1.237,0,1,0,2.122,1.27A44.038,44.038,0,0,1,28.4,77.6a13.8,13.8,0,0,1,3.693-2.87,3.2,3.2,0,0,1,2.982-.184c-.252-.126.12.164.346.815A16.431,16.431,0,0,1,36,77.877a36.3,36.3,0,0,1,.446,4.562,8.32,8.32,0,0,0-.5,1.227,2.661,2.661,0,0,0-.311,1.179,1.553,1.553,0,0,0,.417,1.1,1.588,1.588,0,0,0,1.13.454l.429-.075s.152-.067.2-.095a1.089,1.089,0,0,0,.17-.12A1.047,1.047,0,0,0,38.1,86c.044-.047.064-.071.085-.1.042-.051.08-.1.126-.158l.356-.462c.291-.378.688-.885,1.13-1.4a11.369,11.369,0,0,1,1.791-1.644c0,.2.014.4.014.578,0,.16,0,.3.008.462a1.449,1.449,0,0,0,.048.332,1.1,1.1,0,0,0,.174.4,1.367,1.367,0,0,0,1.051.574,1.163,1.163,0,0,0,.831-.313.747.747,0,0,0,.52.357,1.98,1.98,0,0,0,1.069.008c.324-.04.677-.1,1.013-.162.3-.056.575-.11.8-.155a6.3,6.3,0,0,0,2.259.908,17.788,17.788,0,0,0,3.472.282,29.875,29.875,0,0,0,5.656-.543,1.237,1.237,0,0,0,.815-.562l8.05-5.513a1.146,1.146,0,0,0,.174-.147,1.236,1.236,0,0,0,.371-.342l25.4-36.057a1.236,1.236,0,0,0-.3-1.72l-5.9-4.151a1.236,1.236,0,0,0-.694-.226Zm-63.638.064a1.237,1.237,0,1,0,0,2.474l44.053.013a1.237,1.237,0,1,0,0-2.474ZM86.7,39.207l3.872,2.727-1.324,1.878-3.867-2.732ZM83.961,43.1l3.869,2.734L66.6,75.968l-3.872-2.727L83.961,43.1ZM22.783,46.206a1.237,1.237,0,1,0,0,2.474l44.051.013a1.237,1.237,0,1,0,0-2.474Zm0,5.936a1.237,1.237,0,1,0,0,2.474l44.051.013a1.237,1.237,0,1,0,0-2.474Zm0,5.936a1.237,1.237,0,1,0,0,2.474l44.051.013a1.237,1.237,0,1,0,0-2.474Zm38.736,17.6,3.2,2.251-4.6,3.154Z" transform="translate(1243 1272.664)" fill="#212121" stroke="#fff" stroke-width="1" fill-rule="evenodd"/>
        </g>
      </g>
      <text id="Creación_de_fideicomiso" data-name="Creación de fideicomiso" transform="translate(2654.75 -2197.75) rotate(90)" fill="#212121" font-size="16" font-family="Avenir-Medium, Avenir" font-weight="500" letter-spacing="0.045em"><tspan x="4.316" y="16">Creación de </tspan><tspan x="6.412" y="38">fideicomiso</tspan></text>
    </g>
    <g id="Grupo_54" data-name="Grupo 54" transform="translate(4485.5 869) rotate(-90)">
      <g id="Grupo_32" data-name="Grupo 32" transform="translate(4112.75 -3164.75) rotate(90)">
        <path id="Trazado_68" data-name="Trazado 68" d="M0,0H68V31.855c-1.392,2.035-8.721-.694-12.266,3.336S54.256,44.812,53.873,49H0Z" transform="translate(1417 1319)" fill="#5afba1"/>
        <g id="Grupo_29" data-name="Grupo 29" transform="translate(1415 1301)">
          <path id="Trazado_39" data-name="Trazado 39" d="M35.333,22.963a10.37,10.37,0,1,1-10.37,10.37,10.382,10.382,0,0,1,10.37-10.37m0-2.963A13.333,13.333,0,1,0,48.667,33.333,13.333,13.333,0,0,0,35.333,20Z" transform="translate(31.333 27.407)" fill="#212121" stroke="#fff" stroke-width="1"/>
          <path id="Trazado_40" data-name="Trazado 40" d="M28.944,34.351a1.479,1.479,0,0,1-1.047-.434l-2.963-2.963a1.481,1.481,0,0,1,2.095-2.095l1.684,1.685,4.925-7.386A1.481,1.481,0,1,1,36.1,24.8l-5.926,8.889a1.482,1.482,0,0,1-1.088.652C29.043,34.348,28.994,34.351,28.944,34.351Z" transform="translate(36.241 32.315)" fill="#212121" stroke="#fff" stroke-width="1"/>
          <path id="Trazado_41" data-name="Trazado 41" d="M75.111,12.889a2.963,2.963,0,0,0-2.963-2.963H66.222V8.444a4.444,4.444,0,0,0-8.889,0V9.926H54.37V8.444a4.444,4.444,0,0,0-8.889,0V9.926H33.63V8.444a4.444,4.444,0,0,0-8.889,0V9.926H21.778V8.444a4.444,4.444,0,0,0-8.889,0V9.926H6.963A2.963,2.963,0,0,0,4,12.889v56.3a2.963,2.963,0,0,0,2.963,2.963h40a1.481,1.481,0,0,0,0-2.963h-40V24.741H72.148v16.3h0a1.481,1.481,0,0,0,2.963,0h0ZM60.3,8.444a1.481,1.481,0,1,1,2.963,0v7.407H60.3Zm-11.852,0a1.481,1.481,0,1,1,2.963,0v7.407H48.444Zm-20.741,0a1.481,1.481,0,1,1,2.963,0v7.407H27.7Zm-11.852,0a1.481,1.481,0,0,1,2.963,0v7.407H15.852ZM6.963,21.778V12.889h5.926v2.963a2.963,2.963,0,0,0,2.963,2.963h2.963a2.963,2.963,0,0,0,2.963-2.963V12.889h2.963v2.963A2.963,2.963,0,0,0,27.7,18.815h2.963a2.963,2.963,0,0,0,2.963-2.963V12.889H45.481v2.963a2.963,2.963,0,0,0,2.963,2.963h2.963a2.963,2.963,0,0,0,2.963-2.963V12.889h2.963v2.963A2.963,2.963,0,0,0,60.3,18.815h2.963a2.963,2.963,0,0,0,2.963-2.963V12.889h5.926v8.889Z" transform="translate(-4 -4)" fill="#212121" stroke="#fff" stroke-width="1"/>
          <path id="Trazado_42" data-name="Trazado 42" d="M53.926,14H9.481A1.481,1.481,0,0,0,8,15.481v23.7a1.482,1.482,0,0,0,1.481,1.481h29.63a1.481,1.481,0,0,0,1.481-1.481V28.815H53.926a1.481,1.481,0,0,0,1.481-1.481V15.481A1.481,1.481,0,0,0,53.926,14ZM12.878,19.492A1.481,1.481,0,1,1,14.973,17.4l1.916,1.916L18.8,17.4A1.481,1.481,0,0,1,20.9,19.492l-1.916,1.916L20.9,23.323A1.481,1.481,0,0,1,18.8,25.418L16.889,23.5l-1.916,1.916a1.481,1.481,0,1,1-2.095-2.095l1.916-1.916ZM22.815,37.7H10.963V28.815H22.815Zm14.815,0H25.778V28.815H37.63Zm0-11.852H25.778V16.963H37.63Zm14.815,0H40.593V16.963H52.444Z" transform="translate(3.852 15.63)" fill="#212121" stroke="#fff" stroke-width="1"/>
        </g>
      </g>
      <text id="Ejecución_de_garantía" data-name="Ejecución de garantía" transform="translate(2723.75 -1760.75) rotate(90)" fill="#212121" font-size="16" font-family="Avenir-Medium, Avenir" font-weight="500" letter-spacing="0.045em"><tspan x="1.444" y="16">Ejecución de </tspan><tspan x="19.348" y="38">garantía</tspan></text>
    </g>
    <g id="Grupo_53" data-name="Grupo 53" transform="translate(4478.5 740) rotate(-90)">
      <text id="Extinción_de_fideicomiso" data-name="Extinción de fideicomiso" transform="translate(2634.75 -1868.75) rotate(90)" fill="#212121" font-size="16" font-family="Avenir-Medium, Avenir" font-weight="500" letter-spacing="0.045em"><tspan x="2.636" y="16">Extinción de </tspan><tspan x="6.412" y="38">fideicomiso</tspan></text>
      <g id="Grupo_35" data-name="Grupo 35" transform="translate(4222.75 -3267.75) rotate(90)">
        <path id="Trazado_70" data-name="Trazado 70" d="M0,0H37A15,15,0,0,1,52,15V42s-8.137,5.033-21.137,5.033S0,42,0,42Z" transform="translate(1421 1508)" fill="#5afba1"/>
        <g id="Grupo_34" data-name="Grupo 34" transform="translate(1389.306 1482.731)">
          <g id="Trazado_53" data-name="Trazado 53" transform="translate(0)" fill="#212121">
            <path d="M 30.69014167785645 74.15348052978516 C 29.87453079223633 74.15348052978516 29.21099090576172 73.48871612548828 29.21099090576172 72.67160797119141 L 29.21099090576172 25.24814796447754 C 29.21099090576172 24.43254852294922 29.87453079223633 23.76900863647461 30.69014167785645 23.76900863647461 L 72.60391235351562 23.76900863647461 C 72.63836669921875 23.77842330932617 72.68846130371094 23.79010772705078 72.74806976318359 23.7938289642334 C 72.88175201416016 23.80324935913086 73.00405120849609 23.82735824584961 73.11807250976562 23.86725807189941 L 73.12160491943359 23.86849975585938 L 73.12515258789062 23.86967849731445 C 73.14578247070312 23.87654876708984 73.16628265380859 23.88298797607422 73.18660736083984 23.88934898376465 C 73.21273803710938 23.89750862121582 73.24526214599609 23.90767860412598 73.25669860839844 23.91313934326172 L 73.25959777832031 23.91451835632324 L 73.26252746582031 23.91586875915527 C 73.44994354248047 24.00236892700195 73.58847045898438 24.09389877319336 73.69852447509766 24.20393943786621 L 84.82900238037109 35.33576965332031 C 84.93691253662109 35.44368362426758 85.03053283691406 35.58495330810547 85.11512756347656 35.76755905151367 C 85.12049102783203 35.78023910522461 85.12757873535156 35.80174255371094 85.13506317138672 35.82442855834961 C 85.14493560791016 35.85441589355469 85.155029296875 35.88448333740234 85.16648864746094 35.91481399536133 C 85.20693969726562 36.03879928588867 85.23082733154297 36.16415405273438 85.23751831054688 36.28755950927734 L 85.23814392089844 36.2989387512207 L 85.23928070068359 36.31027984619141 C 85.24418640136719 36.35927581787109 85.25421142578125 36.40106582641602 85.26260375976562 36.43110656738281 L 85.26260375976562 66.40409088134766 C 85.26260375976562 67.21969604492188 84.59906005859375 67.88323974609375 83.78346252441406 67.88323974609375 C 82.96784973144531 67.88323974609375 82.30431365966797 67.21969604492188 82.30431365966797 66.40409088134766 L 82.30431365966797 38.36050796508789 L 82.30431365966797 37.86050796508789 L 81.80431365966797 37.86050796508789 L 72.65296173095703 37.86050796508789 C 71.83734893798828 37.86050796508789 71.17381286621094 37.19696807861328 71.17381286621094 36.3813591003418 L 71.17381286621094 27.2286491394043 L 71.17381286621094 26.7286491394043 L 70.67381286621094 26.7286491394043 L 32.66929244995117 26.7286491394043 L 32.16929244995117 26.7286491394043 L 32.16929244995117 27.2286491394043 L 32.16929244995117 72.67160797119141 C 32.16929244995117 73.48871612548828 31.50575065612793 74.15348052978516 30.69014167785645 74.15348052978516 Z M 74.13210296630859 28.82115936279297 L 74.13210296630859 30.02825927734375 L 74.13210296630859 34.40221786499023 L 74.13210296630859 34.90221786499023 L 74.63210296630859 34.90221786499023 L 79.00607299804688 34.90221786499023 L 80.21318054199219 34.90221786499023 L 79.359619140625 34.04866790771484 L 74.98564910888672 29.67470932006836 L 74.13210296630859 28.82115936279297 Z" stroke="none"/>
            <path d="M 30.69013977050781 24.26899719238281 C 30.15023803710938 24.26899719238281 29.71099853515625 24.70823669433594 29.71099853515625 25.24814605712891 L 29.71099853515625 72.67160797119141 C 29.71099853515625 73.2130126953125 30.15023803710938 73.65347290039062 30.69013977050781 73.65347290039062 C 31.23004913330078 73.65347290039062 31.66928863525391 73.2130126953125 31.66928863525391 72.67160797119141 L 31.66928863525391 27.22864532470703 L 31.66928863525391 26.22864532470703 L 32.66928863525391 26.22864532470703 L 70.67381286621094 26.22864532470703 L 71.67381286621094 26.22864532470703 L 71.67381286621094 27.22864532470703 L 71.67381286621094 36.3813591003418 C 71.67381286621094 36.92126846313477 72.11305236816406 37.36050796508789 72.65296173095703 37.36050796508789 L 81.80430603027344 37.36050796508789 L 82.80431365966797 37.36050796508789 L 82.80431365966797 38.36050796508789 L 82.80431365966797 66.40409088134766 C 82.80431365966797 66.94400024414062 83.24355316162109 67.38323974609375 83.78346252441406 67.38323974609375 C 84.3233642578125 67.38323974609375 84.76260375976562 66.94400024414062 84.76260375976562 66.40409088134766 L 84.76260375976562 36.49135208129883 C 84.75443267822266 36.45355987548828 84.74668884277344 36.40918350219727 84.74178314208984 36.36029815673828 L 84.73948669433594 36.33749008178711 L 84.73825073242188 36.31459045410156 C 84.73402404785156 36.23666000366211 84.71959686279297 36.15957260131836 84.69422149658203 36.07945251464844 C 84.67991638183594 36.04082107543945 84.66879272460938 36.00706100463867 84.66017913818359 35.98093032836914 C 84.65802001953125 35.97437286376953 84.65592956542969 35.96780776977539 84.65371704101562 35.96125793457031 C 84.59668731689453 35.84123611450195 84.53826904296875 35.75215148925781 84.47541809082031 35.68930053710938 L 73.34498596191406 24.55751037597656 C 73.27970886230469 24.49223327636719 73.19000244140625 24.43397521972656 73.06327819824219 24.3746337890625 C 73.05477905273438 24.37187194824219 73.04616546630859 24.36930084228516 73.03750610351562 24.36660003662109 C 73.01420593261719 24.35930633544922 72.99069976806641 24.35190582275391 72.96705627441406 24.34403228759766 L 72.9599609375 24.34165954589844 L 72.95291137695312 24.33918762207031 C 72.88179016113281 24.31430816650391 72.80250549316406 24.29900360107422 72.71060180664062 24.29244995117188 C 72.64752197265625 24.28814697265625 72.59129333496094 24.27890777587891 72.54481506347656 24.26899719238281 L 30.69013977050781 24.26899719238281 M 81.42028045654297 35.4022102355957 L 79.00605773925781 35.4022102355957 L 74.63210296630859 35.4022102355957 L 73.63210296630859 35.4022102355957 L 73.63210296630859 34.4022102355957 L 73.63210296630859 30.02825927734375 L 73.63210296630859 27.61405181884766 L 75.33921051025391 29.32115173339844 L 79.71317291259766 33.69509887695312 L 81.42028045654297 35.4022102355957 M 30.69013977050781 23.26899719238281 L 72.65159606933594 23.26899719238281 C 72.69506072998047 23.26899719238281 72.73580932617188 23.29209136962891 72.77928924560547 23.29480743408203 C 72.95315551757812 23.30702972412109 73.12023162841797 23.33827972412109 73.28324127197266 23.39533233642578 C 73.34844207763672 23.41706085205078 73.41229248046875 23.43335723876953 73.4720458984375 23.46189117431641 C 73.6839599609375 23.5596923828125 73.88227081298828 23.68058776855469 74.05207061767578 23.85037994384766 L 85.18257141113281 34.98223876953125 C 85.35237121582031 35.15203857421875 85.474609375 35.35306930541992 85.57107543945312 35.56225967407227 C 85.59824371337891 35.62339019775391 85.61318969726562 35.68452072143555 85.63761901855469 35.74699783325195 C 85.69332885742188 35.91407775878906 85.72727966308594 36.08522796630859 85.73678588867188 36.26045989990234 C 85.74087524414062 36.30121994018555 85.76260375976562 36.33924865722656 85.76260375976562 36.3813591003418 L 85.76260375976562 66.40409088134766 C 85.76260375976562 67.49756622314453 84.87831115722656 68.38323974609375 83.78346252441406 68.38323974609375 C 82.68995666503906 68.38323974609375 81.80430603027344 67.49756622314453 81.80430603027344 66.40409088134766 L 81.80430603027344 38.36050796508789 L 72.65296173095703 38.36050796508789 C 71.55810546875 38.36050796508789 70.67381286621094 37.47484970092773 70.67381286621094 36.3813591003418 L 70.67381286621094 27.22864532470703 L 32.66928863525391 27.22864532470703 L 32.66928863525391 72.67160797119141 C 32.66928863525391 73.76509857177734 31.78498840332031 74.65347290039062 30.69013977050781 74.65347290039062 C 29.59529876708984 74.65347290039062 28.71099853515625 73.76509857177734 28.71099853515625 72.67160797119141 L 28.71099853515625 25.24814605712891 C 28.71099853515625 24.15602111816406 29.59529876708984 23.26899719238281 30.69013977050781 23.26899719238281 Z M 79.00605773925781 34.4022102355957 L 74.63210296630859 30.02825927734375 L 74.63210296630859 34.4022102355957 L 79.00605773925781 34.4022102355957 Z" stroke="none" fill="#fff"/>
          </g>
          <g id="Trazado_54" data-name="Trazado 54" transform="translate(2.472 2.937)" fill="#212121">
            <path d="M 60.16970825195312 34.92329788208008 L 37.58815002441406 34.92329788208008 C 36.77253723144531 34.92329788208008 36.1089973449707 34.25975799560547 36.1089973449707 33.44414901733398 C 36.1089973449707 32.6285400390625 36.77253723144531 31.96499824523926 37.58815002441406 31.96499824523926 L 60.16970825195312 31.96499824523926 C 60.98532104492188 31.96499824523926 61.64886093139648 32.6285400390625 61.64886093139648 33.44414901733398 C 61.64886093139648 34.25975799560547 60.98532104492188 34.92329788208008 60.16970825195312 34.92329788208008 Z" stroke="none"/>
            <path d="M 60.16970825195312 34.42329788208008 C 60.70961761474609 34.42329788208008 61.14886093139648 33.98405838012695 61.14886093139648 33.44414901733398 C 61.14886093139648 32.90423965454102 60.70961761474609 32.46500015258789 60.16970825195312 32.46500015258789 L 37.58815002441406 32.46500015258789 C 37.04824066162109 32.46500015258789 36.6089973449707 32.90423965454102 36.6089973449707 33.44414901733398 C 36.6089973449707 33.98405838012695 37.04824066162109 34.42329788208008 37.58815002441406 34.42329788208008 L 60.16970825195312 34.42329788208008 M 60.16970825195312 35.42329788208008 L 37.58815002441406 35.42329788208008 C 36.49465942382812 35.42329788208008 35.6089973449707 34.53763961791992 35.6089973449707 33.44414901733398 C 35.6089973449707 32.35065841674805 36.4932975769043 31.46499824523926 37.58815002441406 31.46499824523926 L 60.16970825195312 31.46499824523926 C 61.26456069946289 31.46499824523926 62.14886093139648 32.35065841674805 62.14886093139648 33.44414901733398 C 62.14886093139648 34.53763961791992 61.26456069946289 35.42329788208008 60.16970825195312 35.42329788208008 Z" stroke="none" fill="#fff"/>
          </g>
          <g id="Trazado_55" data-name="Trazado 55" transform="translate(2.472 5.267)" fill="#212121">
            <path d="M 71.22007751464844 41.42329788208008 L 37.5881462097168 41.42329788208008 C 36.77253723144531 41.42329788208008 36.1089973449707 40.75975799560547 36.1089973449707 39.94414901733398 C 36.1089973449707 39.12854766845703 36.77253723144531 38.46500778198242 37.5881462097168 38.46500778198242 L 71.22007751464844 38.46500778198242 C 72.03567504882812 38.46500778198242 72.69921875 39.12854766845703 72.69921875 39.94414901733398 C 72.69921875 40.75975799560547 72.03567504882812 41.42329788208008 71.22007751464844 41.42329788208008 Z" stroke="none"/>
            <path d="M 71.22007751464844 40.92329788208008 C 71.75997924804688 40.92329788208008 72.19921875 40.48405838012695 72.19921875 39.94414901733398 C 72.19921875 39.40424728393555 71.75997924804688 38.96500778198242 71.22007751464844 38.96500778198242 L 37.5881462097168 38.96500778198242 C 37.04823684692383 38.96500778198242 36.6089973449707 39.40424728393555 36.6089973449707 39.94414901733398 C 36.6089973449707 40.48405838012695 37.04823684692383 40.92329788208008 37.5881462097168 40.92329788208008 L 71.22007751464844 40.92329788208008 M 71.22007751464844 41.92329788208008 L 37.5881462097168 41.92329788208008 C 36.49465560913086 41.92329788208008 35.6089973449707 41.03763961791992 35.6089973449707 39.94414901733398 C 35.6089973449707 38.85065841674805 36.49330520629883 37.96500778198242 37.5881462097168 37.96500778198242 L 71.22007751464844 37.96500778198242 C 72.31491851806641 37.96500778198242 73.19921875 38.85065841674805 73.19921875 39.94414901733398 C 73.19921875 41.03763961791992 72.31491851806641 41.92329788208008 71.22007751464844 41.92329788208008 Z" stroke="none" fill="#fff"/>
          </g>
          <g id="Trazado_56" data-name="Trazado 56" transform="translate(2.472 7.596)" fill="#212121">
            <path d="M 71.22007751464844 47.92229080200195 L 37.5881462097168 47.92229080200195 C 36.77253723144531 47.92229080200195 36.1089973449707 47.25875091552734 36.1089973449707 46.44314193725586 C 36.1089973449707 45.62754058837891 36.77253723144531 44.9640007019043 37.5881462097168 44.9640007019043 L 71.22007751464844 44.9640007019043 C 72.03567504882812 44.9640007019043 72.69921875 45.62754058837891 72.69921875 46.44314193725586 C 72.69921875 47.25875091552734 72.03567504882812 47.92229080200195 71.22007751464844 47.92229080200195 Z" stroke="none"/>
            <path d="M 71.22007751464844 47.42229080200195 C 71.75997924804688 47.42229080200195 72.19921875 46.98305130004883 72.19921875 46.44314193725586 C 72.19921875 45.90324020385742 71.75997924804688 45.4640007019043 71.22007751464844 45.4640007019043 L 37.5881462097168 45.4640007019043 C 37.04823684692383 45.4640007019043 36.6089973449707 45.90324020385742 36.6089973449707 46.44314193725586 C 36.6089973449707 46.98305130004883 37.04823684692383 47.42229080200195 37.5881462097168 47.42229080200195 L 71.22007751464844 47.42229080200195 M 71.22007751464844 48.42229080200195 L 37.5881462097168 48.42229080200195 C 36.49465560913086 48.42229080200195 35.6089973449707 47.5366325378418 35.6089973449707 46.44314193725586 C 35.6089973449707 45.34965133666992 36.49330520629883 44.4640007019043 37.5881462097168 44.4640007019043 L 71.22007751464844 44.4640007019043 C 72.31491851806641 44.4640007019043 73.19921875 45.34965133666992 73.19921875 46.44314193725586 C 73.19921875 47.5366325378418 72.31491851806641 48.42229080200195 71.22007751464844 48.42229080200195 Z" stroke="none" fill="#fff"/>
          </g>
          <g id="Trazado_57" data-name="Trazado 57" transform="translate(2.472 9.925)" fill="#212121">
            <path d="M 54.40342330932617 54.42366027832031 L 37.5881462097168 54.42366027832031 C 36.77253341674805 54.42366027832031 36.10899353027344 53.7601203918457 36.10899353027344 52.94450759887695 C 36.10899353027344 52.12814712524414 36.77253341674805 51.46399688720703 37.5881462097168 51.46399688720703 L 54.40342330932617 51.46399688720703 C 55.21903610229492 51.46399688720703 55.88257598876953 52.12814712524414 55.88257598876953 52.94450759887695 C 55.88257598876953 53.7601203918457 55.21903610229492 54.42366027832031 54.40342330932617 54.42366027832031 Z" stroke="none"/>
            <path d="M 37.5881462097168 51.96399688720703 C 37.04823303222656 51.96399688720703 36.60899353027344 52.40384674072266 36.60899353027344 52.94450759887695 C 36.60899353027344 53.48441696166992 37.04823303222656 53.92366027832031 37.5881462097168 53.92366027832031 L 54.40342330932617 53.92366027832031 C 54.94333648681641 53.92366027832031 55.38257598876953 53.48441696166992 55.38257598876953 52.94450759887695 C 55.38257598876953 52.40384674072266 54.94333648681641 51.96399688720703 54.40342330932617 51.96399688720703 L 37.5881462097168 51.96399688720703 M 37.5881462097168 50.96399688720703 L 54.40342330932617 50.96399688720703 C 55.49827575683594 50.96399688720703 56.38257598876953 51.85101699829102 56.38257598876953 52.94450759887695 C 56.38257598876953 54.03799819946289 55.49827575683594 54.92366027832031 54.40342330932617 54.92366027832031 L 37.5881462097168 54.92366027832031 C 36.49330520629883 54.92366027832031 35.60899353027344 54.03799819946289 35.60899353027344 52.94450759887695 C 35.60899353027344 51.85101699829102 36.49330520629883 50.96399688720703 37.5881462097168 50.96399688720703 Z" stroke="none" fill="#fff"/>
          </g>
          <g id="Trazado_58" data-name="Trazado 58" transform="translate(8.644 9.932)" fill="#212121">
            <path d="M 54.81014251708984 54.41648101806641 C 54.42758178710938 54.41648101806641 54.04404067993164 54.25353240966797 53.75785064697266 53.96940231323242 C 53.4830436706543 53.694580078125 53.33099365234375 53.32760238647461 53.33099365234375 52.93733215332031 C 53.33099365234375 52.55104827880859 53.48439788818359 52.17710876464844 53.76308059692383 51.88376235961914 C 54.01894760131836 51.62964248657227 54.40053939819336 51.48398971557617 54.81099319458008 51.48398971557617 C 55.22130966186523 51.48398971557617 55.60314559936523 51.62955093383789 55.85967254638672 51.8835334777832 C 56.12879180908203 52.16835784912109 56.28929138183594 52.56181335449219 56.28929138183594 52.93733215332031 C 56.28929138183594 53.32279968261719 56.12680435180664 53.70638275146484 55.84348297119141 53.98970031738281 L 55.83898162841797 53.99420166015625 L 55.83459091186523 53.99880981445312 C 55.58605194091797 54.26034164428711 55.20307159423828 54.41648101806641 54.81014251708984 54.41648101806641 Z" stroke="none"/>
            <path d="M 54.81014251708984 53.91648101806641 C 55.06484222412109 53.91648101806641 55.31851196289062 53.8160400390625 55.47216415405273 53.65436935424805 L 55.48092269897461 53.6451416015625 L 55.48992156982422 53.63614273071289 C 55.67738342285156 53.44869232177734 55.78929138183594 53.18745040893555 55.78929138183594 52.93733215332031 C 55.78929138183594 52.69287872314453 55.67953872680664 52.4243278503418 55.50219345092773 52.23328018188477 C 55.34053421020508 52.07699203491211 55.08319854736328 51.98398971557617 54.81099319458008 51.98398971557617 C 54.53854751586914 51.98398971557617 54.28130722045898 52.07715225219727 54.12038803100586 52.23363876342773 C 53.93367004394531 52.4327507019043 53.83099365234375 52.68220138549805 53.83099365234375 52.93733215332031 C 53.83099365234375 53.19404983520508 53.93103408813477 53.43547058105469 54.11013412475586 53.61457061767578 C 54.30054092407227 53.80361938476562 54.56223297119141 53.91648101806641 54.81014251708984 53.91648101806641 M 54.81014251708984 54.91648101806641 C 54.29532241821289 54.91648101806641 53.78185272216797 54.69779205322266 53.40558242797852 54.3242301940918 C 53.04833221435547 53.96697998046875 52.83099365234375 53.47389221191406 52.83099365234375 52.93733215332031 C 52.83099365234375 52.40485000610352 53.04833221435547 51.90769195556641 53.40558242797852 51.53414154052734 C 53.77166748046875 51.16737747192383 54.29124450683594 50.98399353027344 54.81098937988281 50.98399353027344 C 55.33073806762695 50.98399353027344 55.85065078735352 51.16737747192383 56.21741104125977 51.53414154052734 C 56.57330322265625 51.90769195556641 56.78929138183594 52.42523193359375 56.78929138183594 52.93733215332031 C 56.78929138183594 53.45487213134766 56.57330322265625 53.96697998046875 56.1970329284668 54.3432502746582 C 55.85880279541016 54.69915008544922 55.34534072875977 54.91648101806641 54.81014251708984 54.91648101806641 Z" stroke="none" fill="#fff"/>
          </g>
          <g id="Trazado_59" data-name="Trazado 59" transform="translate(14.007 18.486)" fill="#212121">
            <path d="M 69.7755126953125 78.28340148925781 C 69.40247344970703 78.28340148925781 69.01026916503906 78.12409973144531 68.72358703613281 77.85672760009766 C 68.45499420166016 77.5677490234375 68.29500579833984 77.17535400390625 68.29500579833984 76.80425262451172 C 68.29500579833984 76.43228912353516 68.45574188232422 76.0389404296875 68.72544097900391 75.74979400634766 C 68.99073791503906 75.49638366699219 69.37233734130859 75.35124969482422 69.77431488037109 75.35124969482422 C 70.17637634277344 75.35124969482422 70.55838012695312 75.49642944335938 70.82434844970703 75.74995422363281 C 71.09395599365234 76.03908538818359 71.25464630126953 76.432373046875 71.25464630126953 76.80425262451172 C 71.25464630126953 77.17526245117188 71.09473419189453 77.56755065917969 70.82626342773438 77.85649871826172 C 70.53030395507812 78.13189697265625 70.15769195556641 78.28340148925781 69.7755126953125 78.28340148925781 Z" stroke="none"/>
            <path d="M 69.77431488037109 75.85124969482422 C 69.50521087646484 75.85124969482422 69.25386810302734 75.94231414794922 69.08104705810547 76.10173034667969 C 68.90158081054688 76.29925537109375 68.79500579833984 76.56024169921875 68.79500579833984 76.80425262451172 C 68.79500579833984 77.04671478271484 68.90025329589844 77.30596923828125 69.07769775390625 77.50307464599609 C 69.27028656005859 77.67652130126953 69.53519439697266 77.78340148925781 69.7755126953125 77.78340148925781 C 70.02513885498047 77.78340148925781 70.27150726318359 77.68394470214844 70.47222137451172 77.50276184082031 C 70.64950561523438 77.30570983886719 70.75464630126953 77.04659271240234 70.75464630126953 76.80425262451172 C 70.75464630126953 76.56039428710938 70.64818572998047 76.299560546875 70.46889495849609 76.10206604003906 C 70.29538726806641 75.94241333007812 70.04360198974609 75.85124969482422 69.77431488037109 75.85124969482422 M 69.77431488037109 74.85124969482422 C 70.28896331787109 74.85124969482422 70.80378723144531 75.03361511230469 71.1800537109375 75.39833831787109 C 71.53594970703125 75.77459716796875 71.75464630126953 76.2894287109375 71.75464630126953 76.80425262451172 C 71.75464630126953 77.31908416748047 71.53594970703125 77.83390045166016 71.1800537109375 78.21016693115234 C 70.80380249023438 78.56604766845703 70.30934906005859 78.78340148925781 69.7755126953125 78.78340148925781 C 69.26068878173828 78.78340148925781 68.74449920654297 78.56607055664062 68.36958312988281 78.21016693115234 C 68.01370239257812 77.83390045166016 67.79500579833984 77.31908416748047 67.79500579833984 76.80425262451172 C 67.79500579833984 76.2894287109375 68.01369476318359 75.77459716796875 68.36958312988281 75.39833831787109 C 68.74517822265625 75.03361511230469 69.25966644287109 74.85124969482422 69.77431488037109 74.85124969482422 Z" stroke="none" fill="#fff"/>
          </g>
          <g id="Trazado_60" data-name="Trazado 60" transform="translate(2.837 13.002)" fill="#212121">
            <path d="M 38.60713958740234 62.98629379272461 C 38.20998764038086 62.98629379272461 37.83020782470703 62.82619094848633 37.56517791748047 62.54705047607422 L 37.5559196472168 62.53730010986328 L 37.54615783691406 62.52807235717773 C 37.27649688720703 62.27301025390625 37.12798690795898 61.90996170043945 37.12798690795898 61.50578308105469 C 37.12798690795898 61.10908126831055 37.28403854370117 60.72551345825195 37.55612945556641 60.45342254638672 C 37.81168746948242 60.19740295410156 38.19117736816406 60.05075073242188 38.59762954711914 60.05075073242188 C 39.00408935546875 60.05075073242188 39.38357925415039 60.19740295410156 39.63879776000977 60.45309066772461 C 39.92440032958984 60.7376708984375 40.08765029907227 61.12101364135742 40.08765029907227 61.50578308105469 C 40.08765029907227 61.90171051025391 39.93254852294922 62.26608276367188 39.63912963867188 62.55951309204102 C 39.37188720703125 62.82674026489258 38.98609924316406 62.98629379272461 38.60713958740234 62.98629379272461 Z" stroke="none"/>
            <path d="M 38.60713958740234 62.48629379272461 C 38.85268783569336 62.48629379272461 39.1126594543457 62.37887191772461 39.28556823730469 62.20595169067383 C 39.42337799072266 62.06815338134766 39.58765029907227 61.83481216430664 39.58765029907227 61.50578308105469 C 39.58765029907227 61.25668334960938 39.47519683837891 60.99592208862305 39.28491973876953 60.80632019042969 C 39.12279891967773 60.64390182495117 38.87228775024414 60.55075073242188 38.59762954711914 60.55075073242188 C 38.32296752929688 60.55075073242188 38.07246017456055 60.64390182495117 37.90968704223633 60.80698013305664 C 37.73065948486328 60.98600006103516 37.62798690795898 61.24070358276367 37.62798690795898 61.50578308105469 C 37.62798690795898 61.6934928894043 37.67339706420898 61.9601936340332 37.88973999023438 62.16481018066406 L 37.90926742553711 62.18328094482422 L 37.92778015136719 62.20278167724609 C 38.09632873535156 62.38030242919922 38.35029983520508 62.48629379272461 38.60713958740234 62.48629379272461 M 38.60713958740234 63.48629379272461 C 38.07329940795898 63.48629379272461 37.55982971191406 63.26759338378906 37.20257949829102 62.89132308959961 C 36.82630920410156 62.53543090820312 36.62798690795898 62.04234313964844 36.62798690795898 61.50578308105469 C 36.62798690795898 60.99096298217773 36.82630920410156 60.47614288330078 37.20257949829102 60.09987258911133 C 37.5679817199707 59.73379135131836 38.08280944824219 59.55075073242188 38.59763336181641 59.55075073242188 C 39.11245727539062 59.55075073242188 39.62727737426758 59.73379135131836 39.99267959594727 60.09987258911133 C 40.37030792236328 60.47614288330078 40.58765029907227 60.99096298217773 40.58765029907227 61.50578308105469 C 40.58765029907227 62.04233169555664 40.37030792236328 62.53543090820312 39.99267959594727 62.91306304931641 C 39.63678741455078 63.26895141601562 39.1219596862793 63.48629379272461 38.60713958740234 63.48629379272461 Z" stroke="none" fill="#fff"/>
          </g>
          <g id="Trazado_61" data-name="Trazado 61" transform="translate(11.844 12.81)" fill="#212121">
            <path d="M 63.73913955688477 68.78191375732422 C 62.92354202270508 68.78191375732422 62.26000213623047 68.11837768554688 62.26000213623047 67.30278015136719 L 62.26000213623047 60.99314498901367 C 62.26000213623047 60.17753601074219 62.92354202270508 59.51399612426758 63.73913955688477 59.51399612426758 C 64.13398742675781 59.51399612426758 64.50534820556641 59.66782760620117 64.78481292724609 59.94714736938477 C 65.06435394287109 60.22655868530273 65.21829986572266 60.59802627563477 65.21829223632812 60.99312591552734 L 65.21829223632812 67.30278015136719 C 65.21829223632812 68.11837768554688 64.55474853515625 68.78191375732422 63.73913955688477 68.78191375732422 Z" stroke="none"/>
            <path d="M 63.73913955688477 60.01399993896484 C 63.19923400878906 60.01399993896484 62.75999450683594 60.45323944091797 62.75999450683594 60.99314880371094 L 62.75999450683594 67.30278015136719 C 62.75999450683594 67.84268188476562 63.19923400878906 68.28192138671875 63.73913955688477 68.28192138671875 C 64.279052734375 68.28192138671875 64.71829223632812 67.84268188476562 64.71829223632812 67.30278015136719 L 64.71829223632812 60.99311828613281 C 64.71829223632812 60.73162841796875 64.61639404296875 60.48574829101562 64.43133544921875 60.30078887939453 C 64.24630737304688 60.1158447265625 64.00048065185547 60.01399993896484 63.73913955688477 60.01399993896484 M 63.73913955688477 59.01399993896484 C 64.83128356933594 59.01399993896484 65.71830749511719 59.899658203125 65.71829223632812 60.99313354492188 L 65.71829223632812 67.30278015136719 C 65.71829223632812 68.39627075195312 64.83262634277344 69.28192138671875 63.73913955688477 69.28192138671875 C 62.64430236816406 69.28192138671875 61.75999450683594 68.39627075195312 61.75999450683594 67.30278015136719 L 61.75999450683594 60.99314880371094 C 61.75999450683594 59.899658203125 62.64430236816406 59.01399993896484 63.73913955688477 59.01399993896484 Z" stroke="none" fill="#fff"/>
          </g>
          <g id="Trazado_62" data-name="Trazado 62" transform="translate(0 14.612)" fill="#212121">
            <path d="M 30.69014358520508 72.37584686279297 C 29.87453269958496 72.37584686279297 29.21099281311035 71.71231079101562 29.21099281311035 70.89669799804688 L 29.21099281311035 66.02014923095703 C 29.21099281311035 65.20453643798828 29.87453269958496 64.54100036621094 30.69014358520508 64.54100036621094 C 31.5057544708252 64.54100036621094 32.16929244995117 65.20453643798828 32.16929244995117 66.02014923095703 L 32.16929244995117 70.89669799804688 C 32.16929244995117 71.71231079101562 31.5057544708252 72.37584686279297 30.69014358520508 72.37584686279297 Z" stroke="none"/>
            <path d="M 30.69014358520508 65.04100036621094 C 30.15023422241211 65.04100036621094 29.71099281311035 65.48023986816406 29.71099281311035 66.02014923095703 L 29.71099281311035 70.89669799804688 C 29.71099281311035 71.43660736083984 30.15023422241211 71.87584686279297 30.69014358520508 71.87584686279297 C 31.23005294799805 71.87584686279297 31.6692943572998 71.43660736083984 31.6692943572998 70.89669799804688 L 31.6692943572998 66.02014923095703 C 31.6692943572998 65.48023986816406 31.23005294799805 65.04100036621094 30.69014358520508 65.04100036621094 M 30.69014358520508 64.04100036621094 C 31.78499412536621 64.04100036621094 32.66929626464844 64.92665100097656 32.66929626464844 66.02014923095703 L 32.66929626464844 70.89669799804688 C 32.66929626464844 71.99018859863281 31.78499412536621 72.87584686279297 30.69014358520508 72.87584686279297 C 29.59530448913574 72.87584686279297 28.71099472045898 71.99018859863281 28.71099472045898 70.89669799804688 L 28.71099472045898 66.02014923095703 C 28.71099472045898 64.92665100097656 29.59530448913574 64.04100036621094 30.69014358520508 64.04100036621094 Z" stroke="none" fill="#fff"/>
          </g>
          <g id="Trazado_63" data-name="Trazado 63" transform="translate(9.328 16.496)" fill="#212121">
            <path d="M 56.72050476074219 72.73430633544922 C 56.34025573730469 72.73430633544922 55.95733642578125 72.57010650634766 55.69620513916016 72.29506683349609 L 55.687255859375 72.28564453125 L 55.67783737182617 72.27669525146484 C 55.4036750793457 72.01645660400391 55.23999404907227 71.63406372070312 55.23999404907227 71.25379943847656 C 55.23999404907227 70.86563110351562 55.39925384521484 70.49143218994141 55.68843460083008 70.20014190673828 C 55.94342422485352 69.94563293457031 56.32079696655273 69.79874420166016 56.72220611572266 69.79874420166016 C 57.12485122680664 69.79874420166016 57.50803756713867 69.94641876220703 57.77413177490234 70.20404815673828 C 58.04459381103516 70.47463989257812 58.19965744018555 70.85709381103516 58.19965744018555 71.25379943847656 C 58.19965744018555 71.64417266845703 58.04782485961914 72.01045227050781 57.77214431762695 72.28514099121094 C 57.48308563232422 72.57524108886719 57.11005401611328 72.73430633544922 56.72050476074219 72.73430633544922 Z" stroke="none"/>
            <path d="M 56.72220611572266 70.29874420166016 C 56.45224761962891 70.29874420166016 56.20361709594727 70.39237213134766 56.04327392578125 70.55241394042969 C 55.84770584106445 70.74940490722656 55.73999404907227 70.99850463867188 55.73999404907227 71.25379943847656 C 55.73999404907227 71.49590301513672 55.84807586669922 71.74889373779297 56.02205657958984 71.91403961181641 L 56.04091644287109 71.93194580078125 L 56.05881500244141 71.95079040527344 C 56.22484588623047 72.12567138671875 56.47838592529297 72.23430633544922 56.72050476074219 72.23430633544922 C 57.04816436767578 72.23430633544922 57.27995681762695 72.07071685791016 57.41923522949219 71.93094635009766 C 57.60268402099609 71.74815368652344 57.69965744018555 71.51399993896484 57.69965744018555 71.25379943847656 C 57.69965744018555 70.99021148681641 57.59907150268555 70.73790740966797 57.42350387573242 70.56053161621094 C 57.24991226196289 70.39408111572266 56.99469375610352 70.29874420166016 56.72220611572266 70.29874420166016 M 56.72220230102539 69.29874420166016 C 57.23431015014648 69.29874420166016 57.74879455566406 69.48178863525391 58.12506484985352 69.84786987304688 C 58.502685546875 70.22414398193359 58.69965744018555 70.73896026611328 58.69965744018555 71.25379943847656 C 58.69965744018555 71.76861572265625 58.502685546875 72.2630615234375 58.12506484985352 72.63932037353516 C 57.74878692626953 73.01695251464844 57.25434494018555 73.23430633544922 56.72050476074219 73.23430633544922 C 56.20568466186523 73.23430633544922 55.69085693359375 73.01560211181641 55.3336067199707 72.63932037353516 C 54.95868682861328 72.28343963623047 54.73999404907227 71.76861572265625 54.73999404907227 71.25379943847656 C 54.73999404907227 70.72130584716797 54.96005630493164 70.22414398193359 55.3336067199707 69.84786987304688 C 55.70036697387695 69.48178863525391 56.2100944519043 69.29874420166016 56.72220230102539 69.29874420166016 Z" stroke="none" fill="#fff"/>
          </g>
          <g id="Trazado_64" data-name="Trazado 64" transform="translate(6.9 15.168)" fill="#212121">
            <path d="M 49.94550704956055 69.01343536376953 C 49.54636764526367 69.01343536376953 49.17376708984375 68.86151885986328 48.9232177734375 68.59662628173828 L 48.91843795776367 68.59157562255859 L 48.91351699829102 68.58665466308594 C 48.62428665161133 68.29741668701172 48.46499633789062 67.93092346191406 48.46499633789062 67.55467224121094 C 48.46499633789062 67.17058563232422 48.61729431152344 66.79653167724609 48.89411544799805 66.50016784667969 C 49.168701171875 66.23719024658203 49.54272079467773 66.09247589111328 49.94851684570312 66.09247589111328 C 50.35311889648438 66.09247589111328 50.73532867431641 66.24208831787109 50.99716949462891 66.50296783447266 L 51.0010986328125 66.50687408447266 L 51.00510787963867 66.51069641113281 C 51.27173614501953 66.76481628417969 51.42465972900391 67.14533233642578 51.42465972900391 67.55467224121094 C 51.42465972900391 67.94406890869141 51.27260971069336 68.31055450439453 50.99651718139648 68.58665466308594 C 50.71809768676758 68.86607360839844 50.35488891601562 69.01343536376953 49.94550704956055 69.01343536376953 Z" stroke="none"/>
            <path d="M 49.94851684570312 65.59247589111328 C 50.46632385253906 65.59249877929688 50.98029708862305 65.78034973144531 51.35006713867188 66.14875793457031 C 51.7263298034668 66.50736236572266 51.92465972900391 67.02083587646484 51.92465972900391 67.55467224121094 C 51.92465972900391 68.06948852539062 51.7263298034668 68.56394195556641 51.35006713867188 68.94020843505859 C 50.97514724731445 69.31648254394531 50.48070907592773 69.51343536376953 49.94550704956055 69.51343536376953 C 49.43067932128906 69.51343536376953 48.91585922241211 69.31648254394531 48.55996704101562 68.94020843505859 C 48.18233871459961 68.56257629394531 47.96499633789062 68.06948852539062 47.96499633789062 67.55467224121094 C 47.96499633789062 67.02218627929688 48.18233871459961 66.5250244140625 48.53822708129883 66.14875793457031 C 48.92223358154297 65.77554321289062 49.4372444152832 65.59245300292969 49.94851684570312 65.59247589111328 Z" stroke="none" fill="#fff"/>
          </g>
          <g id="Trazado_65" data-name="Trazado 65" transform="translate(3.443 17.29)" fill="#212121">
            <path d="M 40.29814910888672 74.94793701171875 C 39.92004013061523 74.94793701171875 39.53475952148438 74.78839874267578 39.26752853393555 74.52116394042969 C 38.98247909545898 74.23610687255859 38.81900024414062 73.8525390625 38.81900024414062 73.46878814697266 C 38.81900024414062 73.08503723144531 38.98247909545898 72.70146942138672 39.26752090454102 72.41641998291016 C 39.52342987060547 72.16050720214844 39.9056396484375 72.01374053955078 40.31613922119141 72.01374053955078 C 40.72419738769531 72.01374053955078 41.09951782226562 72.1588134765625 41.34587860107422 72.4117431640625 L 41.34817886352539 72.41410064697266 L 41.35050964355469 72.41641998291016 C 41.62173843383789 72.68766021728516 41.77729797363281 73.07122802734375 41.77729797363281 73.46878814697266 C 41.77729797363281 73.86634826660156 41.62173843383789 74.24992370605469 41.35050964355469 74.52116394042969 C 41.0784797668457 74.79213714599609 40.69466781616211 74.94793701171875 40.29814910888672 74.94793701171875 Z" stroke="none"/>
            <path d="M 40.31613922119141 72.51374053955078 C 40.04135894775391 72.51374053955078 39.78152084350586 72.60952758789062 39.62107849121094 72.76998138427734 C 39.43193054199219 72.95912933349609 39.31900024414062 73.22036743164062 39.31900024414062 73.46878814697266 C 39.31900024414062 73.71720886230469 39.43193054199219 73.97844696044922 39.62108993530273 74.16761016845703 C 39.79398727416992 74.34053039550781 40.05342864990234 74.44793701171875 40.29814910888672 74.44793701171875 C 40.55949783325195 74.44793701171875 40.82125091552734 74.34262847900391 40.9969482421875 74.1676025390625 C 41.17511749267578 73.98944091796875 41.27729797363281 73.73473358154297 41.27729797363281 73.46878814697266 C 41.27729797363281 73.20285034179688 41.17511749267578 72.94814300537109 40.9969482421875 72.76998138427734 L 40.9922981262207 72.76531982421875 L 40.98770904541016 72.76061248779297 C 40.83713912963867 72.60603332519531 40.58609008789062 72.51374053955078 40.31613922119141 72.51374053955078 M 40.31614303588867 71.51374053955078 C 40.83300018310547 71.51374053955078 41.34748458862305 71.69678497314453 41.70405960083008 72.06287384033203 C 42.08032989501953 72.43914031982422 42.27729797363281 72.95395660400391 42.27729797363281 73.46878814697266 C 42.27729797363281 73.98361968994141 42.08032989501953 74.49844360351562 41.70405960083008 74.87471008300781 C 41.34680938720703 75.2305908203125 40.83470916748047 75.44793701171875 40.29814910888672 75.44793701171875 C 39.78332901000977 75.44793701171875 39.26985931396484 75.23061370849609 38.91397094726562 74.87471008300781 C 38.53770065307617 74.49844360351562 38.31900024414062 73.98361968994141 38.31900024414062 73.46878814697266 C 38.31900024414062 72.95395660400391 38.53770065307617 72.43914031982422 38.91397094726562 72.06287384033203 C 39.28004837036133 71.69678497314453 39.79928588867188 71.51374053955078 40.31614303588867 71.51374053955078 Z" stroke="none" fill="#fff"/>
          </g>
        </g>
      </g>
    </g>
    <line id="Línea_5" data-name="Línea 5" x2="35" transform="translate(2711.25 -2275.25) rotate(90)" fill="none" stroke="#9a9a9a" stroke-linecap="round" stroke-width="1" stroke-dasharray="7"/>
    <line id="Línea_8" data-name="Línea 8" x2="35" transform="translate(2711.25 -2086.25) rotate(90)" fill="none" stroke="#9a9a9a" stroke-linecap="round" stroke-width="1" stroke-dasharray="7"/>
    <line id="Línea_7" data-name="Línea 7" y2="91" transform="translate(2757.25 -2051.25) rotate(90)" fill="none" stroke="#9a9a9a" stroke-linecap="round" stroke-width="1" stroke-dasharray="7"/>
    <line id="Línea_9" data-name="Línea 9" y2="96.75" transform="translate(2757.25 -2051.25)" fill="none" stroke="#9a9a9a" stroke-linecap="round" stroke-width="1" stroke-dasharray="10"/>
    <line id="Línea_10" data-name="Línea 10" y2="66.75" transform="translate(2666.25 -2051.25)" fill="none" stroke="#9a9a9a" stroke-linecap="round" stroke-width="1" stroke-dasharray="10"/>
    <g id="Grupo_51" data-name="Grupo 51" transform="translate(4606 637.5) rotate(-90)">
      <rect id="Rectángulo_170" data-name="Rectángulo 170" width="134" height="23" rx="11.5" transform="translate(2677.75 -2035.75) rotate(90)" fill="#5afba1"/>
      <text id="Cumplimiento" transform="translate(2660.75 -2021.75) rotate(90)" fill="#fff" font-size="13" font-family="Avenir-Roman, Avenir" letter-spacing="0.045em"><tspan x="0" y="0">CUMPLIMIENTO</tspan></text>
    </g>
    <g id="Grupo_52" data-name="Grupo 52" transform="translate(4712 727.5) rotate(-90)">
      <rect id="Rectángulo_169" data-name="Rectángulo 169" width="148" height="23" rx="11.5" transform="translate(2767.75 -1987.75) rotate(90)" fill="#ff4536"/>
      <text id="Incumplimiento" transform="translate(2750.75 -1971.75) rotate(90)" fill="#fff" font-size="13" font-family="Avenir-Roman, Avenir" letter-spacing="0.045em"><tspan x="0" y="0">INCUMPLIMIENTO</tspan></text>
    </g>
  </g>
</svg>
