<svg id="Group_1303" data-name="Group 1303" xmlns="http://www.w3.org/2000/svg" width="37.397" height="37.397" viewBox="0 0 37.397 37.397">
  <path id="Path_1263" data-name="Path 1263" d="M39.455,33.864a.932.932,0,0,0,0-1.864,7.455,7.455,0,1,0,7.455,7.455.932.932,0,0,0-1.864,0,5.591,5.591,0,1,1-5.591-5.591Z" transform="translate(-20.696 -20.817)" fill="#fff"/>
  <path id="Path_1264" data-name="Path 1264" d="M44.275,21.1a.932.932,0,1,0-1.78.557A16.836,16.836,0,1,1,31.474,10.635a.932.932,0,1,0,.557-1.778A18.7,18.7,0,1,0,44.275,21.1Z" transform="translate(-7.737 -7.998)" fill="#fff"/>
  <path id="Path_1265" data-name="Path 1265" d="M34.82,21.061a1.008,1.008,0,0,0-.932-1.014c-.278-.025-.557-.047-.843-.047A13.045,13.045,0,1,0,46.091,33.045a8.251,8.251,0,0,0-.062-1.008.939.939,0,1,0-1.842.326c.02.226.04.45.04.682A11.182,11.182,0,1,1,33.045,21.864c.231,0,.455.021.681.04l.175.015a.881.881,0,0,0,.919-.858Z" transform="translate(-14.287 -14.408)" fill="#fff"/>
  <path id="Path_1266" data-name="Path 1266" d="M52.523,18.523v3.341l-6.25,6.25a.932.932,0,1,0,1.318,1.318l6.25-6.25h3.341a.931.931,0,0,0,.659-.273l5.591-5.591a.932.932,0,0,0-.659-1.591h-2.8v-2.8a.932.932,0,0,0-1.591-.659L52.8,17.864A.931.931,0,0,0,52.523,18.523Zm1.864.386,3.727-3.727v1.478a.931.931,0,0,0,.932.932h1.478L56.8,21.318h-2.41Z" transform="translate(-28.173 -10.136)" fill="#fff"/>
</svg>
