<svg id="Group_1304" data-name="Group 1304" xmlns="http://www.w3.org/2000/svg" width="36.783" height="26.193" viewBox="0 0 36.783 26.193">
  <path id="Path_1271" data-name="Path 1271" d="M40.084,998.159a3.177,3.177,0,0,0-1.34.324h0l-7.829,3.763a2.4,2.4,0,0,0-2.269-1.421h0l-4.5.137a10.05,10.05,0,0,1-2.985-.569,13.621,13.621,0,0,0-4.041-.635,17.016,17.016,0,0,0-4.92.962v-.979a.836.836,0,0,0-.836-.836H6.834a.836.836,0,0,0-.836.836v12.435a.836.836,0,0,0,.836.836h4.531a.836.836,0,0,0,.836-.836v-1.07c5.5-.974,8.777.685,13.735.685h0a8.021,8.021,0,0,0,3.445-1.2c1.345-.7,2.884-1.635,4.44-2.64,3.113-2.01,6.3-4.3,7.962-5.424h0a2.259,2.259,0,0,0,.98-1.59,2.456,2.456,0,0,0-.433-1.675,2.681,2.681,0,0,0-2.249-1.1Zm.114,1.628a.863.863,0,0,1,.758.424.824.824,0,0,1,.15.535.493.493,0,0,1-.256.4h0c-1.709,1.157-4.868,3.426-7.932,5.4-1.532.989-3.039,1.9-4.3,2.56a9.041,9.041,0,0,1-2.678,1.012h0c-4.487,0-7.994-1.654-13.733-.71v-.72a.836.836,0,1,0-1.672,0v2.65h-.418v-10.763h.418v2.646a.836.836,0,1,0,1.672,0v-.725a17.988,17.988,0,0,1,4.92-1.068A11.723,11.723,0,0,1,20.7,1002a11.622,11.622,0,0,0,3.458.635h.025l4.513-.138h0a.693.693,0,0,1,.733.632c0,.317-.294.613-.789.632h0l-8.585.368a.859.859,0,0,0-.321.074.836.836,0,0,0,.392,1.6l8.581-.368h0a2.548,2.548,0,0,0,2.145-1.3l8.618-4.142h0a1.771,1.771,0,0,1,.729-.2Zm-32.528.791h.769v10.763H7.67v-10.763Z" transform="translate(-5.998 -986.819)" fill="#fff" fill-rule="evenodd"/>
  <path id="Path_1272" data-name="Path 1272" d="M50.2,983.528a.836.836,0,0,0-.823.848v1.994H47.384a.836.836,0,1,0,0,1.672h1.994v1.994a.836.836,0,1,0,1.672,0v-1.994h1.994a.836.836,0,1,0,0-1.672H51.049v-1.994a.836.836,0,0,0-.848-.848Z" transform="translate(-29.591 -978.304)" fill="#fff" fill-rule="evenodd"/>
  <path id="Path_1273" data-name="Path 1273" d="M60.046,971.028a.836.836,0,0,0-.823.848v.8h-.8a.836.836,0,1,0,0,1.672h.8v.794a.836.836,0,1,0,1.672,0v-.794h.794a.836.836,0,1,0,0-1.672h-.794v-.8a.836.836,0,0,0-.848-.848Z" transform="translate(-36.016 -971.028)" fill="#fff" fill-rule="evenodd"/>
  <path id="Path_1274" data-name="Path 1274" d="M43.686,971.028a.836.836,0,0,0-.823.848v.8h-.8a.836.836,0,1,0,0,1.672h.8v.794a.836.836,0,1,0,1.672,0v-.794h.794a.836.836,0,1,0,0-1.672h-.794v-.8a.836.836,0,0,0-.848-.848Z" transform="translate(-26.494 -971.028)" fill="#fff" fill-rule="evenodd"/>
</svg>
