<svg xmlns="http://www.w3.org/2000/svg" width="273.331" height="390.954" viewBox="0 0 273.331 390.954">
  <g id="Grupo_48" data-name="Grupo 48" transform="translate(-1366.036 -280.27)">
    <path id="Trazado_80" data-name="Trazado 80" d="M818.519,658.605l-10.245,94.256h70.692l3.073-7.172,4.1,7.172h66.594s-5.123-97.329-14.343-100.4S818.519,658.605,818.519,658.605Z" transform="translate(634.365 -81.637)" fill="#3f3d56"/>
    <circle id="Elipse_9" data-name="Elipse 9" cx="35.858" cy="35.858" r="35.858" transform="translate(1477.472 298.3)" fill="#f0bf9c"/>
    <path id="Trazado_81" data-name="Trazado 81" d="M894.091,280.645s3.073,32.785,0,34.834,49.177,1.025,49.177,1.025-7.172-29.711,0-44.054Z" transform="translate(598.75 76.052)" fill="#f0bf9c"/>
    <path id="Trazado_82" data-name="Trazado 82" d="M875.276,330.9s26.362,4.106,28.549-4.094l13.456,18.437,1.025,184.413s-109.623,13.319-113.721-8.2,42.005-191.585,42.005-191.585l11.607-.751S873.227,330.9,875.276,330.9Z" transform="translate(636.006 53.458)" fill="#66717f"/>
    <path id="Trazado_83" data-name="Trazado 83" d="M829.1,316.375l-17.579,6.092-50.2,12.294L763.372,457.7s-43.03,122.942-23.564,132.163,47.128-12.294,55.324-27.662,36.883-228.467,36.883-232.565S829.1,316.375,829.1,316.375Z" transform="translate(664.924 57.794)" fill="#212121"/>
    <path id="Trazado_84" data-name="Trazado 84" d="M971.431,316.375l6.943,6.092,49.177,22.539-24.588,123.967s32.785,112.7,20.49,118.844-30.735,23.564-34.833,13.319S960.39,327.7,971.431,316.375Z" transform="translate(567.74 57.794)" fill="#212121"/>
    <path id="Trazado_85" data-name="Trazado 85" d="M988.639,590.191s-46.1-19.466-47.128-2.049,52.25,29.711,52.25,24.588S988.639,590.191,988.639,590.191Z" transform="translate(578.991 -52.154)" fill="#f0bf9c"/>
    <path id="Trazado_86" data-name="Trazado 86" d="M819.111,584.528s53.275,39.956,32.785,50.2-47.128-35.858-47.128-35.858Z" transform="translate(635.822 -53.663)" fill="#f0bf9c"/>
    <path id="Trazado_87" data-name="Trazado 87" d="M915.2,157.047a1.978,1.978,0,0,1,1.9-1.129c-16.417-.982-33.708.931-47.442,9.978-3.846,2.534-7.438,5.632-11.817,7.06l3.555,2.787-4.247,1.295,6.25,4.039a5.417,5.417,0,0,1-5.159,1.728,9.388,9.388,0,0,1,5.732,5.852,27.778,27.778,0,0,1,1.37,8.342c1.05-4.075,5.5-6.474,9.7-6.718s8.3,1.142,12.388,2.139a68.528,68.528,0,0,0,27.2,1.046c-3.072,6.164-.481,13.517,2.127,19.891l5.206,12.728c2.89.291,4.933-2.584,7.111-4.506,1.985-1.752-5.917,13.66-4.693,13.1,1.589-.734,18.361-19.251,19.147-20.815a47.618,47.618,0,0,0,5.41-23.078,33.656,33.656,0,0,0-8.744-21.754c-3.734-3.931-8.9-4.619-12.707-7.887-1.5-1.286-1.5-2.29-3.563-3.04C923.241,157.851,915.314,156.8,915.2,157.047Z" transform="translate(614.049 124.585)" fill="#2f2e41"/>
    <path id="Trazado_88" data-name="Trazado 88" d="M744.566,350.912l-7.172-3.074-57.373,94.256s-10.245,24.588,8.2,35.858,61.471,45.079,61.471,45.079l24.588-37.907s-50.2-23.564-47.128-32.785,19.466-33.809,19.466-33.809Z" transform="translate(688.852 44.716)" fill="#212121"/>
    <path id="Trazado_89" data-name="Trazado 89" d="M1030.684,361.865,1044,363.914s55.324,108.6,42.005,129.089-67.618,49.177-67.618,49.177-1.025-33.809-10.245-46.1l31.76-12.294-17.417-67.618Z" transform="translate(551.289 38.887)" fill="#212121"/>
  </g>
</svg>
