<svg xmlns="http://www.w3.org/2000/svg" xmlns:xlink="http://www.w3.org/1999/xlink" width="666.468" height="666.468" viewBox="0 0 666.468 666.468">
  <defs>
    <linearGradient id="linear-gradient" x1="0.5" x2="0.5" y2="1" gradientUnits="objectBoundingBox">
      <stop offset="0" stop-color="#5afba1"/>
      <stop offset="1" stop-color="#2cf7ff"/>
    </linearGradient>
  </defs>
  <g id="Grupo_51" data-name="Grupo 51" transform="translate(-912.016 -73.653)">
    <path id="Trazado_44" data-name="Trazado 44" d="M280.959,0,561.918,214.634,454.6,561.918H107.317L0,214.634Z" transform="matrix(0.978, -0.208, 0.208, 0.978, 912.016, 190.482)" fill="url(#linear-gradient)"/>
    <path id="Trazado_74" data-name="Trazado 74" d="M569,263.5l.6,310.783C293.731,636.3,555.485,579.131,265,640.461c-7.3-12.643-7.352-13.9-22.065-39.384V263.5Z" transform="translate(869.347 79.77)" fill="#f2f2f2"/>
    <path id="Trazado_75" data-name="Trazado 75" d="M295.838,512.924a204,204,0,0,1,52.683-9.392,164.869,164.869,0,0,1,26.863,1.051,168.038,168.038,0,0,1,26.072,5.582c8.427,2.44,16.737,5.258,25.135,7.791a234.4,234.4,0,0,0,25.978,6.339,220.245,220.245,0,0,0,26.4,3.146,160.762,160.762,0,0,0,26.363-.325,80.657,80.657,0,0,0,23.719-6.013,72.443,72.443,0,0,0,19.29-12.373q2.146-1.916,4.129-4c.78-.815-.458-2.057-1.24-1.24a72.459,72.459,0,0,1-41.8,21.345,139.276,139.276,0,0,1-26.28,1.054,216.255,216.255,0,0,1-26.714-2.7,223.242,223.242,0,0,1-25.872-5.889c-8.349-2.419-16.585-5.208-24.9-7.722a187.412,187.412,0,0,0-25.641-6.109,161.239,161.239,0,0,0-26.307-1.826,201.133,201.133,0,0,0-51.991,7.7q-3.188.9-6.346,1.889C294.3,511.57,294.757,513.262,295.838,512.924Z" transform="translate(847.805 -19.208)" fill="#3f3d56"/>
    <path id="Trazado_76" data-name="Trazado 76" d="M295.838,588.924a204,204,0,0,1,52.683-9.392,164.869,164.869,0,0,1,26.863,1.051,168.032,168.032,0,0,1,26.072,5.582c8.427,2.44,16.737,5.258,25.135,7.791a234.412,234.412,0,0,0,25.978,6.339,220.233,220.233,0,0,0,26.4,3.146,160.776,160.776,0,0,0,26.363-.325,80.658,80.658,0,0,0,23.719-6.013,72.44,72.44,0,0,0,19.29-12.373q2.146-1.915,4.129-4c.78-.815-.458-2.057-1.24-1.24a72.458,72.458,0,0,1-41.8,21.345,139.266,139.266,0,0,1-26.28,1.055,216.279,216.279,0,0,1-26.714-2.7,223.267,223.267,0,0,1-25.872-5.889c-8.349-2.419-16.585-5.208-24.9-7.722a187.412,187.412,0,0,0-25.641-6.109,161.239,161.239,0,0,0-26.307-1.826,201.135,201.135,0,0,0-51.991,7.7q-3.188.9-6.346,1.889C294.3,587.57,294.757,589.263,295.838,588.924Z" transform="translate(847.805 -50.797)" fill="#3f3d56"/>
    <path id="Trazado_77" data-name="Trazado 77" d="M295.838,443.924a204,204,0,0,1,52.683-9.392,164.876,164.876,0,0,1,26.863,1.051,168.032,168.032,0,0,1,26.072,5.582c8.427,2.44,16.737,5.258,25.135,7.791a234.408,234.408,0,0,0,25.978,6.339,220.2,220.2,0,0,0,26.4,3.146,160.752,160.752,0,0,0,26.363-.325,80.656,80.656,0,0,0,23.719-6.013,72.439,72.439,0,0,0,19.29-12.373q2.146-1.916,4.129-4c.78-.815-.458-2.057-1.24-1.24a72.458,72.458,0,0,1-41.8,21.345,139.266,139.266,0,0,1-26.28,1.054,216.243,216.243,0,0,1-26.714-2.7,223.245,223.245,0,0,1-25.872-5.889c-8.349-2.419-16.585-5.208-24.9-7.722a187.43,187.43,0,0,0-25.641-6.109,161.235,161.235,0,0,0-26.307-1.826,201.133,201.133,0,0,0-51.991,7.7q-3.188.895-6.346,1.889C294.3,442.57,294.757,444.263,295.838,443.924Z" transform="translate(847.805 9.472)" fill="#3f3d56"/>
    <path id="Trazado_78" data-name="Trazado 78" d="M292.075,319.309c4.241-1.879,9.1-1.551,13.5-.462,4.746,1.175,9.216,3.218,13.888,4.63a48.075,48.075,0,0,0,25.7.487,47.368,47.368,0,0,0,13.459-5.769c.953-.6.074-2.117-.885-1.514a46.448,46.448,0,0,1-24.73,7.05,45.372,45.372,0,0,1-12.945-1.906c-4.638-1.391-9.072-3.41-13.771-4.607-4.978-1.269-10.317-1.544-15.1.576-1.029.456-.139,1.967.885,1.514Z" transform="translate(849.479 57.853)" fill="#3f3d56"/>
    <circle id="Elipse_2" data-name="Elipse 2" cx="26.88" cy="26.88" r="26.88" transform="translate(1244.928 592.208)" fill="#9a9a9a"/>
    <g id="Grupo_49" data-name="Grupo 49" transform="translate(-858.813 4264.127)">
      <path id="Trazado_107" data-name="Trazado 107" d="M275.893,493.33c10.218.219,18.346,7.624,18.346,7.624s-8.438,7.049-18.656,6.83-18.346-7.624-18.346-7.624S265.675,493.111,275.893,493.33Z" transform="translate(1593.158 -4345.602)" fill="#5afba1"/>
      <path id="Trazado_108" data-name="Trazado 108" d="M172.165,401.57c9.231,4.386,19.816,1.412,19.816,1.412s-4.381-10.084-13.613-14.47-19.816-1.412-19.816-1.412S162.934,397.185,172.165,401.57Z" transform="translate(1645.516 -4288.72)" fill="#5afba1"/>
      <path id="Trazado_109" data-name="Trazado 109" d="M169.465,409.651c10.178-.93,19.086,5.514,19.086,5.514s-7.593,7.952-17.77,8.883-19.086-5.514-19.086-5.514S159.288,410.581,169.465,409.651Z" transform="translate(1649.155 -4301.158)" fill="#3f3d56"/>
      <path id="Trazado_110" data-name="Trazado 110" d="M268.909,393.469c-.975,10.173,5.429,19.11,5.429,19.11s7.986-7.557,8.962-17.73-5.429-19.11-5.429-19.11S269.885,383.3,268.909,393.469Z" transform="translate(1587.019 -4283.214)" fill="#3f3d56"/>
      <path id="Trazado_111" data-name="Trazado 111" d="M366.825,532.85c-5.338,8.715-3.5,19.556-3.5,19.556s10.491-3.289,15.83-12,3.5-19.556,3.5-19.556S372.163,524.135,366.825,532.85Z" transform="translate(1537.034 -4360.203)" fill="#3f3d56"/>
      <path id="Trazado_112" data-name="Trazado 112" d="M278.347,574.655a25.32,25.32,0,0,1-4.463-14.044c.023-7.3,3.551-13.945,6.962-20.369.621-1.169,1.239-2.334,1.835-3.5a75.779,75.779,0,0,0,5.893-14.788c5.135-19.083.063-41.62-13.568-60.286-10.859-14.871-27.07-27.887-49.56-39.793l.439-.83c22.619,11.974,38.934,25.08,49.879,40.069,13.8,18.894,18.925,41.729,13.717,61.084a76.709,76.709,0,0,1-5.964,14.971c-.6,1.169-1.218,2.338-1.841,3.511-3.358,6.323-6.83,12.862-6.852,19.931a24.373,24.373,0,0,0,4.3,13.516Z" transform="translate(1610.025 -4307.253)" fill="#3f3d56"/>
      <path id="Trazado_113" data-name="Trazado 113" d="M273.1,183.33c-10.218.219-18.346,7.624-18.346,7.624s8.438,7.049,18.656,6.83,18.346-7.624,18.346-7.624S283.318,183.111,273.1,183.33Z" transform="translate(1594.475 -4181.126)" fill="#5afba1"/>
      <path id="Trazado_114" data-name="Trazado 114" d="M380.866,91.57c-9.231,4.386-19.816,1.412-19.816,1.412s4.381-10.084,13.613-14.47S394.478,77.1,394.478,77.1,390.1,87.185,380.866,91.57Z" transform="translate(1538.079 -4124.244)" fill="#5afba1"/>
      <path id="Trazado_115" data-name="Trazado 115" d="M379.692,99.651c-10.178-.93-19.086,5.514-19.086,5.514s7.593,7.952,17.77,8.883,19.086-5.514,19.086-5.514S389.87,100.581,379.692,99.651Z" transform="translate(1538.314 -4136.682)" fill="#3f3d56"/>
      <path id="Trazado_116" data-name="Trazado 116" d="M305.411,83.469c.976,10.173-5.429,19.11-5.429,19.11S292,95.022,291.02,84.848s5.429-19.11,5.429-19.11S304.435,73.3,305.411,83.469Z" transform="translate(1575.288 -4118.738)" fill="#3f3d56"/>
      <path id="Trazado_117" data-name="Trazado 117" d="M201.45,222.85c5.338,8.715,3.5,19.556,3.5,19.556s-10.491-3.289-15.83-12-3.5-19.556-3.5-19.556S196.111,214.135,201.45,222.85Z" transform="translate(1631.317 -4195.728)" fill="#3f3d56"/>
      <path id="Trazado_118" data-name="Trazado 118" d="M237.836,264.655l-.778-.526a24.372,24.372,0,0,0,4.3-13.516c-.022-7.069-3.494-13.606-6.851-19.929-.623-1.174-1.244-2.343-1.842-3.512A76.675,76.675,0,0,1,226.7,212.2c-5.208-19.355-.08-42.19,13.716-61.084,10.945-14.988,27.261-28.095,49.879-40.069l.439.83c-22.49,11.905-38.7,24.922-49.56,39.793-13.631,18.666-18.7,41.2-13.568,60.286a75.766,75.766,0,0,0,5.893,14.788c.6,1.165,1.215,2.33,1.836,3.5,3.411,6.424,6.939,13.066,6.961,20.367a25.32,25.32,0,0,1-4.462,14.045Z" transform="translate(1610.417 -4142.778)" fill="#3f3d56"/>
    </g>
  </g>
</svg>
