<svg xmlns="http://www.w3.org/2000/svg" width="82.619" height="96.773" viewBox="0 0 82.619 96.773">
  <g id="Group_1306" data-name="Group 1306" transform="translate(0.5 0.5)">
    <path id="Exclusion_1" data-name="Exclusion 1" d="M41.715,80.986c-13.176,0-26.236-.01-38.818-.031H.043c0-.235-.009-.488-.018-.757S0,79.63,0,79.293a5.453,5.453,0,0,1,.27-1.968,2.949,2.949,0,0,1,1.456-1.632,22.464,22.464,0,0,1,10.74-2.566,33.1,33.1,0,0,1,5.611.508,48.38,48.38,0,0,1,9.045,2.715,16.677,16.677,0,0,0,5.956,1.172,14.27,14.27,0,0,0,5.9-1.291,19.73,19.73,0,0,0,5.334-3.67c2.049-1.926,3.987-4.038,5.862-6.081.647-.705,1.316-1.434,1.981-2.146a39.005,39.005,0,0,1,6.718-5.764,35.417,35.417,0,0,1,7.9-3.978l.229-.08a4.112,4.112,0,0,0,1.371-.664,1.238,1.238,0,0,0,.293-1.42A1.633,1.633,0,0,0,66.9,51.279a5.988,5.988,0,0,0-1.05.11,19.928,19.928,0,0,0-7.584,3.2C56.133,56,53.985,57.473,51.908,58.9c-2.531,1.733-5.146,3.525-7.754,5.233a8.716,8.716,0,0,1-4.814,1.528A10.957,10.957,0,0,1,33.1,63.4a5.888,5.888,0,0,1-2.516-3.314,6.369,6.369,0,0,1,.568-4.166,24.129,24.129,0,0,1,5.3-6.858l.005-.005.522-.529c.07-.071.143-.143.214-.213.62-.608,1.26-1.238.654-2.189a1.543,1.543,0,0,0-1.386-.773,4.191,4.191,0,0,0-1.4.318,10.665,10.665,0,0,0-3.8,2.763,43.826,43.826,0,0,0-4.7,6.035c-.38.553-.774,1.124-1.168,1.682a20.064,20.064,0,0,1-6.879,6.208,17.784,17.784,0,0,1-4.089,1.584,18,18,0,0,1-4.368.534,20.624,20.624,0,0,1-8.348-1.836,2.144,2.144,0,0,1-1.537-2.28c.045-7.8.079-17.058-.017-26.54-.016-1.533.825-2.2,1.8-2.977l.047-.037C13.06,22.012,24.891,12.582,39.246,1.126a9.126,9.126,0,0,0,.806-.76c.119-.121.242-.247.365-.367h.474L62.159,16.876a3.284,3.284,0,0,1-1.994.7,6.371,6.371,0,0,0-.867.138,66.753,66.753,0,0,0-11.679,4.167A64.788,64.788,0,0,0,36.947,28.19a24.457,24.457,0,0,0-5.337,5.335c-3.879,5.293-9.188,9.585-16.23,13.122-.2.1-.406.2-.6.294-.361.173-.735.352-1.09.55-.131.073-.266.144-.408.219-.735.387-1.5.786-1.7,1.453a1.6,1.6,0,0,0,.21,1.243,1.618,1.618,0,0,0,1.517.947,5.468,5.468,0,0,0,2.072-.6c7.231-3.243,14.046-7.46,20.636-11.538.27-.167.543-.34.807-.507a25.787,25.787,0,0,1,2.861-1.646,7.573,7.573,0,0,1,3.2-.754A5.778,5.778,0,0,1,47.126,38.1,8.336,8.336,0,0,1,49.3,42.353a6.956,6.956,0,0,1-.585,4.47c-.57,1.084-1.17,2.176-1.75,3.231-.54.983-1.1,2-1.632,3.008-.039.073-.078.146-.118.22a4.189,4.189,0,0,0-.558,1.394,1.421,1.421,0,0,0,.64,1.355,1.578,1.578,0,0,0,.966.384c.66,0,1.184-.551,1.69-1.084l.144-.151a35.483,35.483,0,0,0,5.825-7.834A27.75,27.75,0,0,0,55.824,42.9a27,27,0,0,0,1.107-4.869c.555-4.2,1.9-7.094,4.233-9.107a13.648,13.648,0,0,1,4.345-2.444,30.428,30.428,0,0,1,6.09-1.417,2.989,2.989,0,0,1,.421-.033,1.683,1.683,0,0,1,1.126.4c2.092,1.719,4.232,3.452,6.3,5.127l.014.012,2.1,1.7.055,48.687H79.23C66.46,80.978,53.838,80.986,41.715,80.986ZM62.949,64.051a13.236,13.236,0,0,0-4.8.873,14.053,14.053,0,0,0-4.32,2.707A21.241,21.241,0,0,1,61.2,66.235a18.865,18.865,0,0,1,4.412.528,2.83,2.83,0,0,0,.656.087,1.06,1.06,0,0,0,1.16-1.022c.147-1.05-.648-1.342-1.444-1.489A16.77,16.77,0,0,0,62.949,64.051Zm4.766-6.28a15.187,15.187,0,0,0-10.283,3.84,10.751,10.751,0,0,1,1.26-.424l.379-.109a21.54,21.54,0,0,1,7.036-1.021c1.643,0,3.329.119,4.907.247l.075.006c.163.014.332.028.5.028.464,0,1.008-.1,1.1-.863.129-1.053-.731-1.282-1.547-1.414A21.591,21.591,0,0,0,67.715,57.771Zm-46.393-16.8A63.116,63.116,0,0,1,9.945,42.79a2.074,2.074,0,0,0-1.577.591,1.574,1.574,0,0,0-.253,1.285,1.53,1.53,0,0,0,1.748,1.412,4.918,4.918,0,0,0,.565-.036,17.44,17.44,0,0,0,5.805-1.759A28.965,28.965,0,0,0,21.323,40.968Zm-6.5-5.081a1.813,1.813,0,0,0-1.02.227,1.15,1.15,0,0,0-.45,1.039c0,.973.6,1.516,1.71,1.529l.379,0c4.176,0,7.369-.942,10.049-2.963h-.009c-2.388.122-4.858.249-7.28.249-1.073,0-2.061-.024-3.02-.073C15.045,35.89,14.931,35.887,14.826,35.887Z" transform="translate(0)" fill="#fff" stroke="rgba(0,0,0,0)" stroke-miterlimit="10" stroke-width="1"/>
    <path id="Path_1239" data-name="Path 1239" d="M1.015-16.771A4.72,4.72,0,0,0,5.86-11.878a4.486,4.486,0,0,0,4.489-3.106h-2.2a2.4,2.4,0,0,1-2.3,1.388,2.869,2.869,0,0,1-2.86-3.175,2.862,2.862,0,0,1,2.86-3.175,2.407,2.407,0,0,1,2.3,1.374h2.2A4.5,4.5,0,0,0,5.86-21.678,4.731,4.731,0,0,0,1.015-16.771ZM11.5-15.8c0,2.378,1.533,3.958,3.449,3.958a2.986,2.986,0,0,0,2.518-1.237v1.113h1.93v-7.614h-1.93v1.086a2.994,2.994,0,0,0-2.5-1.209C13.031-19.7,11.5-18.173,11.5-15.8Zm5.967.027a2.046,2.046,0,0,1-2.012,2.24,2.077,2.077,0,0,1-2-2.268,2.027,2.027,0,0,1,2-2.213A2.046,2.046,0,0,1,17.465-15.768Zm9.689,1.636c-.055-2.79-4.256-1.924-4.256-3.312,0-.44.37-.728,1.081-.728a1.131,1.131,0,0,1,1.273.99h1.834C26.976-18.7,25.867-19.7,24.034-19.7c-1.875,0-3,1.017-3,2.282,0,2.79,4.283,1.924,4.283,3.285,0,.44-.411.783-1.163.783a1.259,1.259,0,0,1-1.369-1.017h-1.93c.082,1.416,1.41,2.529,3.312,2.529C26.018-11.837,27.154-12.826,27.154-14.132ZM28.235-15.8c0,2.378,1.533,3.958,3.449,3.958A2.986,2.986,0,0,0,34.2-13.074v1.113h1.93v-7.614H34.2v1.086A2.994,2.994,0,0,0,31.7-19.7C29.768-19.7,28.235-18.173,28.235-15.8Zm5.967.027a2.046,2.046,0,0,1-2.012,2.24,2.077,2.077,0,0,1-2-2.268,2.027,2.027,0,0,1,2-2.213A2.046,2.046,0,0,1,34.2-15.768Zm10.291,3.807h2.025l-3.435-9.607H40.853l-3.435,9.607h2.012l.63-1.828h3.8Zm-1.15-3.367H40.579l1.382-4.013Zm15.067,3.367h1.916v-4.467a2.955,2.955,0,0,0-3.107-3.257,3,3,0,0,0-2.6,1.457,2.9,2.9,0,0,0-2.669-1.457,2.756,2.756,0,0,0-2.231,1.031v-.921H47.8v7.614h1.916v-4.206a1.623,1.623,0,0,1,1.711-1.842,1.617,1.617,0,0,1,1.683,1.842v4.206H55.03v-4.206a1.62,1.62,0,0,1,1.7-1.842,1.617,1.617,0,0,1,1.683,1.842Zm3.736,0h1.916v-7.614H62.147Zm.972-8.521A1.134,1.134,0,0,0,64.3-21.609a1.134,1.134,0,0,0-1.177-1.127,1.126,1.126,0,0,0-1.177,1.127A1.126,1.126,0,0,0,63.118-20.482Zm2.34,4.687c0,2.378,1.533,3.958,3.462,3.958a2.986,2.986,0,0,0,2.5-1.251v1.182a1.778,1.778,0,0,1-1.875,2.02,1.782,1.782,0,0,1-1.861-1.141h-1.9c.192,1.746,1.683,2.818,3.818,2.818a3.473,3.473,0,0,0,3.75-3.7v-7.669h-1.93v1.086a2.962,2.962,0,0,0-2.5-1.209C66.991-19.7,65.459-18.173,65.459-15.8Zm5.967.027a2.046,2.046,0,0,1-2.012,2.24,2.077,2.077,0,0,1-2-2.268,2.027,2.027,0,0,1,2-2.213A2.046,2.046,0,0,1,71.425-15.768Zm3.312-.027c0,2.378,1.533,3.958,3.449,3.958A2.986,2.986,0,0,0,80.7-13.074v1.113h1.93v-7.614H80.7v1.086A2.994,2.994,0,0,0,78.2-19.7C76.27-19.7,74.737-18.173,74.737-15.8Zm5.967.027a2.046,2.046,0,0,1-2.012,2.24,2.077,2.077,0,0,1-2-2.268,2.027,2.027,0,0,1,2-2.213A2.046,2.046,0,0,1,80.7-15.768Z" transform="translate(-1.015 104.481)" fill="#fff"/>
  </g>
</svg>
