<svg xmlns="http://www.w3.org/2000/svg" width="311.936" height="81.986" viewBox="0 0 311.936 81.986">
  <g id="Group_1297" data-name="Group 1297" transform="translate(133.5 2266.5)">
    <path id="Exclusion_1" data-name="Exclusion 1" d="M41.715,80.986c-13.176,0-26.236-.01-38.818-.031H.043c0-.235-.009-.488-.018-.757S0,79.63,0,79.293a5.453,5.453,0,0,1,.27-1.968,2.949,2.949,0,0,1,1.456-1.632,22.464,22.464,0,0,1,10.74-2.566,33.1,33.1,0,0,1,5.611.508,48.38,48.38,0,0,1,9.045,2.715,16.677,16.677,0,0,0,5.956,1.172,14.27,14.27,0,0,0,5.9-1.291,19.73,19.73,0,0,0,5.334-3.67c2.049-1.926,3.987-4.038,5.862-6.081.647-.705,1.316-1.434,1.981-2.146a39.005,39.005,0,0,1,6.718-5.764,35.417,35.417,0,0,1,7.9-3.978l.229-.08a4.112,4.112,0,0,0,1.371-.664,1.238,1.238,0,0,0,.293-1.42A1.633,1.633,0,0,0,66.9,51.279a5.988,5.988,0,0,0-1.05.11,19.928,19.928,0,0,0-7.584,3.2C56.133,56,53.985,57.473,51.908,58.9c-2.531,1.733-5.146,3.525-7.754,5.233a8.716,8.716,0,0,1-4.814,1.528A10.957,10.957,0,0,1,33.1,63.4a5.888,5.888,0,0,1-2.516-3.314,6.369,6.369,0,0,1,.568-4.166,24.129,24.129,0,0,1,5.3-6.858l.005-.005.522-.529c.07-.071.143-.143.214-.213.62-.608,1.26-1.238.654-2.189a1.543,1.543,0,0,0-1.386-.773,4.191,4.191,0,0,0-1.4.318,10.665,10.665,0,0,0-3.8,2.763,43.826,43.826,0,0,0-4.7,6.035c-.38.553-.774,1.124-1.168,1.682a20.064,20.064,0,0,1-6.879,6.208,17.784,17.784,0,0,1-4.089,1.584,18,18,0,0,1-4.368.534,20.624,20.624,0,0,1-8.348-1.836,2.144,2.144,0,0,1-1.537-2.28c.045-7.8.079-17.058-.017-26.54-.016-1.533.825-2.2,1.8-2.977l.047-.037C13.06,22.012,24.891,12.582,39.246,1.126a9.126,9.126,0,0,0,.806-.76c.119-.121.242-.247.365-.367h.474L62.159,16.876a3.284,3.284,0,0,1-1.994.7,6.371,6.371,0,0,0-.867.138,66.753,66.753,0,0,0-11.679,4.167A64.788,64.788,0,0,0,36.947,28.19a24.457,24.457,0,0,0-5.337,5.335c-3.879,5.293-9.188,9.585-16.23,13.122-.2.1-.406.2-.6.294-.361.173-.735.352-1.09.55-.131.073-.266.144-.408.219-.735.387-1.5.786-1.7,1.453a1.6,1.6,0,0,0,.21,1.243,1.618,1.618,0,0,0,1.517.947,5.468,5.468,0,0,0,2.072-.6c7.231-3.243,14.046-7.46,20.636-11.538.27-.167.543-.34.807-.507a25.787,25.787,0,0,1,2.861-1.646,7.573,7.573,0,0,1,3.2-.754A5.778,5.778,0,0,1,47.126,38.1,8.336,8.336,0,0,1,49.3,42.353a6.956,6.956,0,0,1-.585,4.47c-.57,1.084-1.17,2.176-1.75,3.231-.54.983-1.1,2-1.632,3.008-.039.073-.078.146-.118.22a4.189,4.189,0,0,0-.558,1.394,1.421,1.421,0,0,0,.64,1.355,1.578,1.578,0,0,0,.966.384c.66,0,1.184-.551,1.69-1.084l.144-.151a35.483,35.483,0,0,0,5.825-7.834A27.75,27.75,0,0,0,55.824,42.9a27,27,0,0,0,1.107-4.869c.555-4.2,1.9-7.094,4.233-9.107a13.648,13.648,0,0,1,4.345-2.444,30.428,30.428,0,0,1,6.09-1.417,2.989,2.989,0,0,1,.421-.033,1.683,1.683,0,0,1,1.126.4c2.092,1.719,4.232,3.452,6.3,5.127l.014.012,2.1,1.7.055,48.687H79.23C66.46,80.978,53.838,80.986,41.715,80.986ZM62.949,64.051a13.236,13.236,0,0,0-4.8.873,14.053,14.053,0,0,0-4.32,2.707A21.241,21.241,0,0,1,61.2,66.235a18.865,18.865,0,0,1,4.412.528,2.83,2.83,0,0,0,.656.087,1.06,1.06,0,0,0,1.16-1.022c.147-1.05-.648-1.342-1.444-1.489A16.77,16.77,0,0,0,62.949,64.051Zm4.766-6.28a15.187,15.187,0,0,0-10.283,3.84,10.751,10.751,0,0,1,1.26-.424l.379-.109a21.54,21.54,0,0,1,7.036-1.021c1.643,0,3.329.119,4.907.247l.075.006c.163.014.332.028.5.028.464,0,1.008-.1,1.1-.863.129-1.053-.731-1.282-1.547-1.414A21.591,21.591,0,0,0,67.715,57.771Zm-46.393-16.8A63.116,63.116,0,0,1,9.945,42.79a2.074,2.074,0,0,0-1.577.591,1.574,1.574,0,0,0-.253,1.285,1.53,1.53,0,0,0,1.748,1.412,4.918,4.918,0,0,0,.565-.036,17.44,17.44,0,0,0,5.805-1.759A28.965,28.965,0,0,0,21.323,40.968Zm-6.5-5.081a1.813,1.813,0,0,0-1.02.227,1.15,1.15,0,0,0-.45,1.039c0,.973.6,1.516,1.71,1.529l.379,0c4.176,0,7.369-.942,10.049-2.963h-.009c-2.388.122-4.858.249-7.28.249-1.073,0-2.061-.024-3.02-.073C15.045,35.89,14.931,35.887,14.826,35.887Z" transform="translate(-133 -2266)" fill="#901e78" stroke="rgba(0,0,0,0)" stroke-miterlimit="10" stroke-width="1"/>
    <path id="Path_1239" data-name="Path 1239" d="M1.015-7.137a12.343,12.343,0,0,0,12.669,12.8c5.547,0,10.056-2.947,11.738-8.123H19.66a6.269,6.269,0,0,1-6.012,3.63c-4.366,0-7.48-3.235-7.48-8.3,0-5.1,3.114-8.3,7.48-8.3a6.3,6.3,0,0,1,6.012,3.594h5.762c-1.682-5.14-6.191-8.123-11.738-8.123A12.373,12.373,0,0,0,1.015-7.137ZM28.428-4.585c0,6.218,4.008,10.351,9.018,10.351a7.809,7.809,0,0,0,6.585-3.235V5.442h5.046V-14.469H44.032v2.839a7.829,7.829,0,0,0-6.549-3.163C32.436-14.793,28.428-10.8,28.428-4.585Zm15.6.072c0,3.774-2.505,5.858-5.261,5.858-2.684,0-5.225-2.156-5.225-5.93s2.541-5.787,5.225-5.787C41.526-10.372,44.032-8.287,44.032-4.514ZM69.369-.237c-.143-7.3-11.13-5.032-11.13-8.662,0-1.15.966-1.9,2.827-1.9,1.968,0,3.185,1.042,3.328,2.588h4.8c-.286-3.954-3.185-6.577-7.981-6.577-4.9,0-7.837,2.66-7.837,5.966,0,7.3,11.2,5.032,11.2,8.59,0,1.15-1.074,2.049-3.042,2.049-2,0-3.4-1.15-3.579-2.66H52.907c.215,3.7,3.686,6.613,8.661,6.613C66.4,5.766,69.369,3.178,69.369-.237ZM72.2-4.585c0,6.218,4.008,10.351,9.018,10.351A7.809,7.809,0,0,0,87.8,2.531V5.442h5.046V-14.469H87.8v2.839a7.829,7.829,0,0,0-6.549-3.163C76.2-14.793,72.2-10.8,72.2-4.585Zm15.6.072c0,3.774-2.505,5.858-5.261,5.858-2.684,0-5.225-2.156-5.225-5.93s2.541-5.787,5.225-5.787C85.295-10.372,87.8-8.287,87.8-4.514Zm26.912,9.956h5.3l-8.983-25.123h-5.833L96.21,5.442h5.261l1.646-4.78h9.949Zm-3.006-8.806h-7.229l3.615-10.495Zm39.4,8.806h5.01V-6.239c0-5.5-3.364-8.518-8.124-8.518a7.843,7.843,0,0,0-6.8,3.81,7.581,7.581,0,0,0-6.979-3.81,7.207,7.207,0,0,0-5.833,2.7v-2.408h-5.01V5.442h5.01v-11c0-3.163,1.754-4.816,4.473-4.816,2.648,0,4.4,1.653,4.4,4.816v11h5.01v-11c0-3.163,1.754-4.816,4.438-4.816,2.648,0,4.4,1.653,4.4,4.816Zm9.77,0h5.01V-14.469h-5.01Zm2.541-22.284a2.965,2.965,0,0,0,3.078-2.947,2.965,2.965,0,0,0-3.078-2.947,2.944,2.944,0,0,0-3.078,2.947A2.944,2.944,0,0,0,163.419-16.842Zm6.12,12.256c0,6.218,4.008,10.351,9.054,10.351a7.81,7.81,0,0,0,6.549-3.271V5.586c0,3.7-2.147,5.283-4.9,5.283-2.505,0-4.366-1.186-4.867-2.983H170.4c.5,4.565,4.4,7.368,9.985,7.368,6.513,0,9.806-4.277,9.806-9.668V-14.469h-5.046v2.839a7.746,7.746,0,0,0-6.549-3.163C173.547-14.793,169.538-10.8,169.538-4.585Zm15.6.072c0,3.774-2.505,5.858-5.261,5.858-2.684,0-5.225-2.156-5.225-5.93s2.541-5.787,5.225-5.787C182.637-10.372,185.142-8.287,185.142-4.514Zm8.661-.072c0,6.218,4.008,10.351,9.018,10.351a7.809,7.809,0,0,0,6.585-3.235V5.442h5.046V-14.469h-5.046v2.839a7.829,7.829,0,0,0-6.549-3.163C197.81-14.793,193.8-10.8,193.8-4.585Zm15.6.072c0,3.774-2.505,5.858-5.261,5.858-2.684,0-5.225-2.156-5.225-5.93s2.541-5.787,5.225-5.787C206.9-10.372,209.406-8.287,209.406-4.514Z" transform="translate(-36.015 -2210.519)" fill="#901e78"/>
  </g>
</svg>
