<svg xmlns="http://www.w3.org/2000/svg" width="41.265" height="20.603" viewBox="0 0 41.265 20.603">
  <path id="Path_1270" data-name="Path 1270" d="M34.556,32a26.373,26.373,0,0,0-16.651,5.974,1.151,1.151,0,0,0,1.449,1.788A24.294,24.294,0,0,1,30.8,34.593a8.553,8.553,0,0,0,.036,15.417,24.814,24.814,0,0,1-14.88-8.46,1.145,1.145,0,1,0-1.717,1.5A26.79,26.79,0,0,0,34.556,52.6a26.79,26.79,0,0,0,20.317-9.551,1.145,1.145,0,0,0,0-1.5A26.79,26.79,0,0,0,34.556,32Zm3.756,2.593A24.8,24.8,0,0,1,52.369,42.3,24.8,24.8,0,0,1,38.312,50.01a8.567,8.567,0,0,0,0-15.417Zm-3.756,1.413a6.3,6.3,0,1,1-6.3,6.3A6.278,6.278,0,0,1,34.556,36.006Zm0,4.006A2.289,2.289,0,1,0,36.845,42.3,2.289,2.289,0,0,0,34.556,40.012Z" transform="translate(-13.889 -32)" fill="#fff"/>
</svg>
