<svg xmlns="http://www.w3.org/2000/svg" width="581.6" height="420.946" viewBox="0 0 581.6 420.946">
  <g id="Group_1301" data-name="Group 1301" transform="translate(-1315.907 2855.831)">
    <g id="undraw_social_ideas_e8rj" transform="translate(1315.907 -2855.831)">
      <path id="Path_306" data-name="Path 306" d="M179.2,378.357s-32.758-64.188-18.38-118.636a109.163,109.163,0,0,0-3.952-68.944A183.636,183.636,0,0,0,141.4,161" transform="translate(-111.978 -87.68)" fill="none" stroke="#535461" stroke-miterlimit="10" stroke-width="2"/>
      <path id="Path_307" data-name="Path 307" d="M133.247,89.756c1.563,8.328-8.981,35.3-8.981,35.3s-19.6-21.316-21.165-29.638a15.338,15.338,0,0,1,30.14-5.66Z" transform="translate(-94.967 -50.835)" fill="#6c63ff"/>
      <path id="Path_308" data-name="Path 308" d="M194.078,156.869c-3.215,7.814-26.725,24.749-26.725,24.749s-4.873-28.544-1.674-36.386a15.338,15.338,0,1,1,28.383,11.638Z" transform="translate(-122.225 -76.505)" fill="#6c63ff"/>
      <path id="Path_309" data-name="Path 309" d="M213.85,293.38c-6.731,5.146-35.56,7.87-35.56,7.87s10.2-27.1,16.934-32.245A15.338,15.338,0,1,1,213.85,293.38Z" transform="translate(-128.278 -134.009)" fill="#6c63ff"/>
      <path id="Path_310" data-name="Path 310" d="M209.724,406.051C203.958,412.258,176,419.815,176,419.815s5.476-28.438,11.241-34.645a15.338,15.338,0,1,1,22.477,20.875Z" transform="translate(-127.266 -184.563)" fill="#6c63ff"/>
      <path id="Path_311" data-name="Path 311" d="M107.931,209.216c7.061,4.683,36.007,5.47,36.007,5.47s-12-26.356-19.061-31.039a15.339,15.339,0,1,0-16.951,25.569Z" transform="translate(-94.155 -96.557)" fill="#6c63ff"/>
      <path id="Path_312" data-name="Path 312" d="M99.768,337.891c8.138,2.355,36-5.582,36-5.582s-19.335-21.556-27.472-23.911a15.337,15.337,0,1,0-8.523,29.467Z" transform="translate(-88.688 -152.538)" fill="#6c63ff"/>
      <path id="Path_313" data-name="Path 313" d="M114.353,465.869c7.624,3.695,36.414.608,36.414.608s-15.416-24.514-23.035-28.209a15.34,15.34,0,0,0-13.4,27.6Z" transform="translate(-96.2 -209.507)" fill="#6c63ff"/>
      <path id="Path_314" data-name="Path 314" d="M133.247,89.756c1.563,8.328-8.981,35.3-8.981,35.3s-19.6-21.316-21.165-29.638a15.338,15.338,0,0,1,30.14-5.66Z" transform="translate(-94.967 -50.835)" fill="#fc6681"/>
      <path id="Path_315" data-name="Path 315" d="M194.078,156.869c-3.215,7.814-26.725,24.749-26.725,24.749s-4.873-28.544-1.674-36.386a15.338,15.338,0,1,1,28.383,11.638Z" transform="translate(-122.225 -76.505)" fill="#fc6681"/>
      <path id="Path_316" data-name="Path 316" d="M213.85,293.38c-6.731,5.146-35.56,7.87-35.56,7.87s10.2-27.1,16.934-32.245A15.338,15.338,0,1,1,213.85,293.38Z" transform="translate(-128.278 -134.009)" fill="#fc6681"/>
      <path id="Path_317" data-name="Path 317" d="M209.724,406.051C203.958,412.258,176,419.815,176,419.815s5.476-28.438,11.241-34.645a15.338,15.338,0,1,1,22.477,20.875Z" transform="translate(-127.266 -184.563)" fill="#fc6681"/>
      <path id="Path_318" data-name="Path 318" d="M107.931,209.216c7.061,4.683,36.007,5.47,36.007,5.47s-12-26.356-19.061-31.039a15.339,15.339,0,1,0-16.951,25.569Z" transform="translate(-94.155 -96.557)" fill="#fc6681"/>
      <path id="Path_319" data-name="Path 319" d="M99.768,337.891c8.138,2.355,36-5.582,36-5.582s-19.335-21.556-27.472-23.911a15.337,15.337,0,1,0-8.523,29.467Z" transform="translate(-88.688 -152.538)" fill="#fc6681"/>
      <path id="Path_320" data-name="Path 320" d="M114.353,465.869c7.624,3.695,36.414.608,36.414.608s-15.416-24.514-23.035-28.209a15.34,15.34,0,0,0-13.4,27.6Z" transform="translate(-96.2 -209.507)" fill="#fc6681"/>
      <path id="Path_321" data-name="Path 321" d="M987.94,219.84s41.577-65.349,46.6-93.257A359.3,359.3,0,0,1,1049.052,73" transform="translate(-486.016 -48.798)" fill="none" stroke="#535461" stroke-miterlimit="10" stroke-width="2"/>
      <path id="Path_322" data-name="Path 322" d="M1093.664,173l-26.234,2.233S1081.384,199.233,1093.664,173Z" transform="translate(-521.138 -92.982)" fill="#fe7ebb"/>
      <path id="Path_323" data-name="Path 323" d="M1031.709,147l20.775,16.639S1025.569,174.35,1031.709,147Z" transform="translate(-504.953 -81.494)" fill="#fe7ebb"/>
      <path id="Path_324" data-name="Path 324" d="M1101.731,132l-23.621,3.165S1098.94,152.094,1101.731,132Z" transform="translate(-525.857 -74.867)" fill="#fe7ebb"/>
      <path id="Path_325" data-name="Path 325" d="M1050.116,117l15.595,10.945S1046.767,135.977,1050.116,117Z" transform="translate(-513.313 -68.239)" fill="#fe7ebb"/>
      <path id="Path_326" data-name="Path 326" d="M1088.74,95.887s19.362-5.129,22.153-4.013,1.117,13.4-6.7,13.954S1088.74,95.887,1088.74,95.887Z" transform="translate(-530.554 -57.067)" fill="#fe7ebb"/>
      <path id="Path_327" data-name="Path 327" d="M1061.7,73s12.279,11.721,12.837,14.512-10.047,9.489-15.628,0S1061.7,73,1061.7,73Z" transform="translate(-516.527 -48.798)" fill="#fe7ebb"/>
      <circle id="Ellipse_28" data-name="Ellipse 28" cx="5.582" cy="5.582" r="5.582" transform="translate(562.473 19.737)" fill="#ffd037"/>
      <circle id="Ellipse_29" data-name="Ellipse 29" cx="5.582" cy="5.582" r="5.582" transform="translate(552.426 16.946)" fill="#ffd037"/>
      <path id="Path_329" data-name="Path 329" d="M228.114,90.121c-2.869,3.483-3.974,8.372-5.213,12.988-9.958,37.112-34.483,66.979-62.419,88.289-11.827,9.031-26.233,21.149-23.644,37.335,1.39,8.7,7.507,15.07,12.062,22.181,9.533,14.83,12.62,35,8.077,52.746-5.169,20.2-19.6,39.071-15.132,59.477,2.757,12.592,12.112,21.523,21.109,29.214Q184,410.342,206.4,426.048c10.008,7.022,20.652,13.853,32.312,14.741,10.27.787,20.328-3.114,30.074-6.971,8.518-3.349,17.253-6.871,24.129-13.619,4.465-4.4,8.071-10.091,13.055-13.692,11.721-8.467,26.758-3.1,40.187.508a139.941,139.941,0,0,0,95.78-8.769c46.266-21.768,81.53-67.4,126.769-91.895,19.457-10.538,40.623-17.074,58.64-30.643A109.538,109.538,0,0,0,653.117,247.8a120.609,120.609,0,0,0,18.877-74.028c-2.115-26.222-14.049-51.5-32.764-66.3-20.038-15.846-45.345-18.8-68.151-28.321-23.549-9.829-44.491-26.725-67.811-37.263a138.663,138.663,0,0,0-119.6,2.7c-25.379,12.81-51.1,42.76-79.37,45.01C284.147,91.238,243.843,71.06,228.114,90.121Z" transform="translate(-109.828 -29.639)" fill="#e4beff"/>
      <circle id="Ellipse_31" data-name="Ellipse 31" cx="4.465" cy="4.465" r="4.465" transform="translate(371.092 53.958)" fill="#fff"/>
      <circle id="Ellipse_32" data-name="Ellipse 32" cx="2.233" cy="2.233" r="2.233" transform="translate(358.812 118.146)" fill="#fff"/>
      <circle id="Ellipse_33" data-name="Ellipse 33" cx="2.233" cy="2.233" r="2.233" transform="translate(275.089 56.19)" fill="#fff"/>
      <circle id="Ellipse_34" data-name="Ellipse 34" cx="2.233" cy="2.233" r="2.233" transform="translate(89.479 146.997)" fill="#fff"/>
      <circle id="Ellipse_35" data-name="Ellipse 35" cx="2.233" cy="2.233" r="2.233" transform="translate(218.715 308.477)" fill="#fff"/>
      <circle id="Ellipse_36" data-name="Ellipse 36" cx="2.233" cy="2.233" r="2.233" transform="translate(67.454 205.776)" fill="#fff"/>
      <circle id="Ellipse_37" data-name="Ellipse 37" cx="2.233" cy="2.233" r="2.233" transform="translate(455.373 72.935)" fill="#fff"/>
      <circle id="Ellipse_38" data-name="Ellipse 38" cx="2.233" cy="2.233" r="2.233" transform="translate(328.672 163.356)" fill="#fff"/>
      <circle id="Ellipse_39" data-name="Ellipse 39" cx="2.233" cy="2.233" r="2.233" transform="translate(519.562 134.332)" fill="#fff"/>
      <circle id="Ellipse_40" data-name="Ellipse 40" cx="2.233" cy="2.233" r="2.233" transform="translate(373.581 300.49)" fill="#fff"/>
      <path id="Path_345" data-name="Path 345" d="M831.277,260.538h-4.638V255.9h-.776v4.638H821.23v.776h4.633v4.633h.776v-4.633h4.638Z" transform="translate(-373.671 -119.056)" fill="#fff"/>
      <path id="Path_346" data-name="Path 346" d="M419.7,758.965h-2.06V756.9h-.346v2.065h-2.06v.34h2.06v2.06h.346v-2.06h2.06Z" transform="translate(-194.282 -340.42)" fill="#fff"/>
      <path id="Path_347" data-name="Path 347" d="M584.7,645.965H582.63V643.9h-.34v2.065h-2.06v.341h2.06v2.06h.34v-2.06H584.7Z" transform="translate(-267.186 -290.491)" fill="#fff"/>
      <path id="Path_348" data-name="Path 348" d="M830.7,415.965H828.63V413.9h-.341v2.065h-2.06v.34h2.06v2.06h.341v-2.06H830.7Z" transform="translate(-375.88 -188.867)" fill="#fff"/>
      <path id="Path_349" data-name="Path 349" d="M662.7,473.965H660.63V471.9h-.341v2.065h-2.06v.34h2.06v2.06h.341v-2.06H662.7Z" transform="translate(-301.65 -214.494)" fill="#fff"/>
      <path id="Path_350" data-name="Path 350" d="M187.7,411.965H185.63V409.9h-.34v2.065h-2.06v.34h2.06v2.06h.34v-2.06H187.7Z" transform="translate(-91.775 -187.1)" fill="#fff"/>
      <path id="Path_351" data-name="Path 351" d="M588.7,176.965H586.63V174.9h-.34v2.065h-2.06v.34h2.06v2.06h.34v-2.06H588.7Z" transform="translate(-268.954 -83.267)" fill="#fff"/>
      <path id="Path_352" data-name="Path 352" d="M265.7,141.965h-2.06V139.9h-.346v2.065h-2.06v.34h2.06v2.06h.346v-2.06h2.06Z" transform="translate(-126.239 -67.802)" fill="#fff"/>
    </g>
  </g>
</svg>
