<svg xmlns="http://www.w3.org/2000/svg" width="503.429" height="349.405" viewBox="0 0 503.429 349.405">
  <g id="undraw_icon_design_qvdf" transform="translate(-15.424 -86.39)">
    <path id="Path_1277" data-name="Path 1277" d="M509.167,282.146A98.732,98.732,0,1,0,369.539,421.774L509.167,561.4,648.795,421.774A98.732,98.732,0,1,0,509.167,282.146Z" transform="matrix(0.996, 0.087, -0.087, 0.996, -134.211, -182.537)" fill="#fc6681"/>
    <rect id="Rectangle_98" data-name="Rectangle 98" width="4.15" height="1.383" transform="translate(67.138 430.389)" fill="#d0cde1"/>
    <path id="Path_1289" data-name="Path 1289" d="M212.527,553.917l.1-.318,1.985-6.039-25.636,1.556Z" transform="translate(-53.501 -142.16)" fill="#ffb9b9"/>
    <path id="Path_1290" data-name="Path 1290" d="M243.741,497.11l15.579,39.655s-1.416,33.99,16.995,31.157-2.832-36.822-2.832-36.822l-11.33-41.071S247.99,487.2,243.741,497.11Z" transform="translate(-113.784 -203.591)" fill="#a0616a"/>
    <circle id="Ellipse_100" data-name="Ellipse 100" cx="25.492" cy="25.492" r="25.492" transform="translate(78.264 115.781)" fill="#a0616a"/>
    <path id="Path_1291" data-name="Path 1291" d="M171.689,291.6s-8.5,28.325-14.162,28.325,38.238,16.995,38.238,16.995-11.33-11.33,0-32.573Z" transform="translate(-87.052 -142.539)" fill="#a0616a"/>
    <path id="Path_1292" data-name="Path 1292" d="M227.91,607.31l.927-.166c7.443-1.342,12.188-2.926,12.493-4.773.588-3.535-4.462-22.025-10.556-42.411-6.834-22.834-14.976-48.048-17.992-57.311-.761-2.345-1.2-3.666-1.2-3.666l-2.725-17.051-2.94-18.352-69.4,18.414-9.913,16.989-2.11,6.156v.007l-3.106,9.083-6.122,17.9-17.19,50.248,106.279,20.137Z" transform="translate(-68.884 -195.553)" fill="#2f2e41"/>
    <path id="Path_1293" data-name="Path 1293" d="M154.489,327.542s19.638,5.214,25.4,11.1l10.008,5.891,12.746,26.909s9.914,4.249,9.914,22.66,14.162,49.568,14.162,49.568,9.914,8.5,2.832,12.746-15.579,4.249-15.579,4.249,7.081-26.909-7.081-28.325-21.244-2.832-22.66,0S144.576,476.248,129,472s-7.081-46.736-7.081-46.736l12.746-99.137s9.914-1.416,15.579,0S154.489,327.542,154.489,327.542Z" transform="translate(-75.517 -152.987)" fill="#575a89"/>
    <path id="Path_1295" data-name="Path 1295" d="M100.426,497.11,116,536.764s-1.416,33.99,16.995,31.157-2.832-36.822-2.832-36.822l-11.33-41.071S104.674,487.2,100.426,497.11Z" transform="translate(-69.605 -203.591)" fill="#a0616a"/>
    <path id="Path_1296" data-name="Path 1296" d="M124.722,326.46l-2.832-1.416s-8.5-8.5-18.411,2.832-19.827,70.812-19.827,70.812V417.1s-11.33,15.579-1.416,24.076,11.33,9.914,11.33,9.914,9.914-14.162,21.244-7.081l1.416-5.665a17.529,17.529,0,0,0,2.832-4.249c1.416-2.832,4.249,1.416,2.833-2.832s0-5.665,0-7.081,1.416-8.5,1.416-8.5l-1.416-43.9Z" transform="translate(-62.744 -151.905)" fill="#575a89"/>
    <path id="Path_1297" data-name="Path 1297" d="M199.2,249.844s20.709-45.152-33.414-45.1c0,0-33.206-17.444-58.492,23.01L81.2,270.285l6.667-1.325.846,6.637,8.507,5.219,6.4-6.612-1.058,10.123,73.3,31.129s-27.634-30.6-16.974-66.681l4.327,8.832Z" transform="translate(-63.678 -114.61)" fill="#2f2e41"/>
    <ellipse id="Ellipse_102" data-name="Ellipse 102" cx="3.578" cy="7.156" rx="3.578" ry="7.156" transform="translate(87.316 141.339)" fill="#a0616a"/>
    <path id="Path_1392" data-name="Path 1392" d="M509.167,282.146A98.732,98.732,0,1,0,369.539,421.774C687.352,383.217,687.352,320.7,648.795,282.146a98.732,98.732,0,0,0-139.628,0Z" transform="matrix(0.996, 0.087, -0.087, 0.996, -134.211, -182.537)" fill="#fe7ebb"/>
  </g>
</svg>
